<?xml version="1.0" encoding="UTF-8" standalone="no"?>
<!DOCTYPE svg PUBLIC "-//W3C//DTD SVG 1.1//EN"
 "http://www.w3.org/Graphics/SVG/1.1/DTD/svg11.dtd">
<!-- Generated by graphviz version 2.40.1 (20161225.0304)
 -->
<!-- Title: UmlClassDiagram Pages: 1 -->
<svg width="3537pt" height="1140pt"
 viewBox="0.00 0.00 3536.88 1140.00" xmlns="http://www.w3.org/2000/svg" xmlns:xlink="http://www.w3.org/1999/xlink">
<g id="graph0" class="graph" transform="scale(1 1) rotate(0) translate(4 1136)">
<title>UmlClassDiagram</title>
<polygon fill="#ffffff" stroke="transparent" points="-4,4 -4,-1136 3532.882,-1136 3532.882,4 -4,4"/>
<!-- 7 -->
<g id="node1" class="node">
<title>7</title>
<polygon fill="#f2f2f2" stroke="#000000" points="0,-956.3 0,-1064.3 222.0492,-1064.3 222.0492,-956.3 0,-956.3"/>
<text text-anchor="middle" x="111.0246" y="-1047.7" font-family="Times,serif" font-size="14.00" fill="#000000">&lt;&lt;Library&gt;&gt;</text>
<text text-anchor="middle" x="111.0246" y="-1030.9" font-family="Times,serif" font-size="14.00" fill="#000000">Address</text>
<polyline fill="none" stroke="#000000" points="0,-1022.7 222.0492,-1022.7 "/>
<text text-anchor="middle" x="111.0246" y="-1006.1" font-family="Times,serif" font-size="14.00" fill="#000000"> </text>
<polyline fill="none" stroke="#000000" points="0,-997.9 222.0492,-997.9 "/>
<text text-anchor="start" x="8" y="-981.3" font-family="Times,serif" font-size="14.00" fill="#000000">Internal:</text>
<text text-anchor="start" x="8" y="-964.5" font-family="Times,serif" font-size="14.00" fill="#000000"> &#160;&#160;&#160;isContract(account: address): bool</text>
</g>
<!-- 0 -->
<g id="node2" class="node">
<title>0</title>
<polygon fill="#f2f2f2" stroke="#000000" points="1142.2247,-889.1 1142.2247,-1131.5 1559.8245,-1131.5 1559.8245,-889.1 1142.2247,-889.1"/>
<text text-anchor="middle" x="1351.0246" y="-1114.9" font-family="Times,serif" font-size="14.00" fill="#000000">&lt;&lt;Interface&gt;&gt;</text>
<text text-anchor="middle" x="1351.0246" y="-1098.1" font-family="Times,serif" font-size="14.00" fill="#000000">IERC20</text>
<polyline fill="none" stroke="#000000" points="1142.2247,-1089.9 1559.8245,-1089.9 "/>
<text text-anchor="middle" x="1351.0246" y="-1073.3" font-family="Times,serif" font-size="14.00" fill="#000000"> </text>
<polyline fill="none" stroke="#000000" points="1142.2247,-1065.1 1559.8245,-1065.1 "/>
<text text-anchor="start" x="1150.2247" y="-1048.5" font-family="Times,serif" font-size="14.00" fill="#000000">External:</text>
<text text-anchor="start" x="1150.2247" y="-1031.7" font-family="Times,serif" font-size="14.00" fill="#000000"> &#160;&#160;&#160;&#160;totalSupply(): uint</text>
<text text-anchor="start" x="1150.2247" y="-1014.9" font-family="Times,serif" font-size="14.00" fill="#000000"> &#160;&#160;&#160;&#160;balanceOf(account: address): uint</text>
<text text-anchor="start" x="1150.2247" y="-998.1" font-family="Times,serif" font-size="14.00" fill="#000000"> &#160;&#160;&#160;&#160;transfer(recipient: address, amount: uint): bool</text>
<text text-anchor="start" x="1150.2247" y="-981.3" font-family="Times,serif" font-size="14.00" fill="#000000"> &#160;&#160;&#160;&#160;allowance(owner: address, spender: address): uint</text>
<text text-anchor="start" x="1150.2247" y="-964.5" font-family="Times,serif" font-size="14.00" fill="#000000"> &#160;&#160;&#160;&#160;approve(spender: address, amount: uint): bool</text>
<text text-anchor="start" x="1150.2247" y="-947.7" font-family="Times,serif" font-size="14.00" fill="#000000"> &#160;&#160;&#160;&#160;transferFrom(sender: address, recipient: address, amount: uint): bool</text>
<text text-anchor="start" x="1150.2247" y="-930.9" font-family="Times,serif" font-size="14.00" fill="#000000">Public:</text>
<text text-anchor="start" x="1150.2247" y="-914.1" font-family="Times,serif" font-size="14.00" fill="#000000"> &#160;&#160;&#160;&lt;&lt;event&gt;&gt; Transfer(from: address, to: address, value: uint)</text>
<text text-anchor="start" x="1150.2247" y="-897.3" font-family="Times,serif" font-size="14.00" fill="#000000"> &#160;&#160;&#160;&lt;&lt;event&gt;&gt; Approval(owner: address, spender: address, value: uint)</text>
</g>
<!-- 2 -->
<g id="node3" class="node">
<title>2</title>
<polygon fill="#f2f2f2" stroke="#000000" points="637.2315,-601.3 637.2315,-759.7 822.8177,-759.7 822.8177,-601.3 637.2315,-601.3"/>
<text text-anchor="middle" x="730.0246" y="-743.1" font-family="Times,serif" font-size="14.00" fill="#000000">Ownable</text>
<polyline fill="none" stroke="#000000" points="637.2315,-734.9 822.8177,-734.9 "/>
<text text-anchor="start" x="645.2315" y="-718.3" font-family="Times,serif" font-size="14.00" fill="#000000">Private:</text>
<text text-anchor="start" x="645.2315" y="-701.5" font-family="Times,serif" font-size="14.00" fill="#000000"> &#160;&#160;_owner: address</text>
<polyline fill="none" stroke="#000000" points="637.2315,-693.3 822.8177,-693.3 "/>
<text text-anchor="start" x="645.2315" y="-676.7" font-family="Times,serif" font-size="14.00" fill="#000000">Public:</text>
<text text-anchor="start" x="645.2315" y="-659.9" font-family="Times,serif" font-size="14.00" fill="#000000"> &#160;&#160;&#160;&lt;&lt;modifier&gt;&gt; onlyOwner()</text>
<text text-anchor="start" x="645.2315" y="-643.1" font-family="Times,serif" font-size="14.00" fill="#000000"> &#160;&#160;&#160;constructor()</text>
<text text-anchor="start" x="645.2315" y="-626.3" font-family="Times,serif" font-size="14.00" fill="#000000"> &#160;&#160;&#160;owner(): address</text>
<text text-anchor="start" x="645.2315" y="-609.5" font-family="Times,serif" font-size="14.00" fill="#000000"> &#160;&#160;&#160;isOwner(): bool</text>
</g>
<!-- 1 -->
<g id="node8" class="node">
<title>1</title>
<polygon fill="#f2f2f2" stroke="#000000" points="714.9523,-947.9 714.9523,-1072.7 933.0969,-1072.7 933.0969,-947.9 714.9523,-947.9"/>
<text text-anchor="middle" x="824.0246" y="-1056.1" font-family="Times,serif" font-size="14.00" fill="#000000">Context</text>
<polyline fill="none" stroke="#000000" points="714.9523,-1047.9 933.0969,-1047.9 "/>
<text text-anchor="middle" x="824.0246" y="-1031.3" font-family="Times,serif" font-size="14.00" fill="#000000"> </text>
<polyline fill="none" stroke="#000000" points="714.9523,-1023.1 933.0969,-1023.1 "/>
<text text-anchor="start" x="722.9523" y="-1006.5" font-family="Times,serif" font-size="14.00" fill="#000000">Internal:</text>
<text text-anchor="start" x="722.9523" y="-989.7" font-family="Times,serif" font-size="14.00" fill="#000000"> &#160;&#160;&#160;_msgSender(): (payable: address)</text>
<text text-anchor="start" x="722.9523" y="-972.9" font-family="Times,serif" font-size="14.00" fill="#000000">Public:</text>
<text text-anchor="start" x="722.9523" y="-956.1" font-family="Times,serif" font-size="14.00" fill="#000000"> &#160;&#160;&#160;constructor()</text>
</g>
<!-- 2&#45;&gt;1 -->
<g id="edge1" class="edge">
<title>2&#45;&gt;1</title>
<path fill="none" stroke="#000000" d="M752.6596,-759.915C766.3005,-807.7745 783.7263,-868.9131 797.9437,-918.7948"/>
<polygon fill="none" stroke="#000000" points="787.8904,-921.8296 806.2115,-947.8025 808.0861,-916.0733 787.8904,-921.8296"/>
</g>
<!-- 3 -->
<g id="node4" class="node">
<title>3</title>
<polygon fill="#f2f2f2" stroke="#000000" points="840.9747,-508.9 840.9747,-852.1 1255.0745,-852.1 1255.0745,-508.9 840.9747,-508.9"/>
<text text-anchor="middle" x="1048.0246" y="-835.5" font-family="Times,serif" font-size="14.00" fill="#000000">ERC20</text>
<polyline fill="none" stroke="#000000" points="840.9747,-827.3 1255.0745,-827.3 "/>
<text text-anchor="start" x="848.9747" y="-810.7" font-family="Times,serif" font-size="14.00" fill="#000000">Private:</text>
<text text-anchor="start" x="848.9747" y="-793.9" font-family="Times,serif" font-size="14.00" fill="#000000"> &#160;&#160;_balances: mapping(address=&gt;uint)</text>
<text text-anchor="start" x="848.9747" y="-777.1" font-family="Times,serif" font-size="14.00" fill="#000000"> &#160;&#160;_allowances: mapping(address=&gt;mapping(address=&gt;uint))</text>
<text text-anchor="start" x="848.9747" y="-760.3" font-family="Times,serif" font-size="14.00" fill="#000000"> &#160;&#160;_totalSupply: uint</text>
<polyline fill="none" stroke="#000000" points="840.9747,-752.1 1255.0745,-752.1 "/>
<text text-anchor="start" x="848.9747" y="-735.5" font-family="Times,serif" font-size="14.00" fill="#000000">Internal:</text>
<text text-anchor="start" x="848.9747" y="-718.7" font-family="Times,serif" font-size="14.00" fill="#000000"> &#160;&#160;&#160;_transfer(sender: address, recipient: address, amount: uint)</text>
<text text-anchor="start" x="848.9747" y="-701.9" font-family="Times,serif" font-size="14.00" fill="#000000"> &#160;&#160;&#160;_mint(account: address, amount: uint)</text>
<text text-anchor="start" x="848.9747" y="-685.1" font-family="Times,serif" font-size="14.00" fill="#000000"> &#160;&#160;&#160;_burn(account: address, amount: uint)</text>
<text text-anchor="start" x="848.9747" y="-668.3" font-family="Times,serif" font-size="14.00" fill="#000000"> &#160;&#160;&#160;_approve(owner: address, spender: address, amount: uint)</text>
<text text-anchor="start" x="848.9747" y="-651.5" font-family="Times,serif" font-size="14.00" fill="#000000">Public:</text>
<text text-anchor="start" x="848.9747" y="-634.7" font-family="Times,serif" font-size="14.00" fill="#000000"> &#160;&#160;&#160;totalSupply(): uint</text>
<text text-anchor="start" x="848.9747" y="-617.9" font-family="Times,serif" font-size="14.00" fill="#000000"> &#160;&#160;&#160;balanceOf(account: address): uint</text>
<text text-anchor="start" x="848.9747" y="-601.1" font-family="Times,serif" font-size="14.00" fill="#000000"> &#160;&#160;&#160;transfer(recipient: address, amount: uint): bool</text>
<text text-anchor="start" x="848.9747" y="-584.3" font-family="Times,serif" font-size="14.00" fill="#000000"> &#160;&#160;&#160;allowance(owner: address, spender: address): uint</text>
<text text-anchor="start" x="848.9747" y="-567.5" font-family="Times,serif" font-size="14.00" fill="#000000"> &#160;&#160;&#160;approve(spender: address, amount: uint): bool</text>
<text text-anchor="start" x="848.9747" y="-550.7" font-family="Times,serif" font-size="14.00" fill="#000000"> &#160;&#160;&#160;transferFrom(sender: address, recipient: address, amount: uint): bool</text>
<text text-anchor="start" x="848.9747" y="-533.9" font-family="Times,serif" font-size="14.00" fill="#000000"> &#160;&#160;&#160;increaseAllowance(spender: address, addedValue: uint): bool</text>
<text text-anchor="start" x="848.9747" y="-517.1" font-family="Times,serif" font-size="14.00" fill="#000000"> &#160;&#160;&#160;decreaseAllowance(spender: address, subtractedValue: uint): bool</text>
</g>
<!-- 3&#45;&gt;0 -->
<g id="edge3" class="edge">
<title>3&#45;&gt;0</title>
<path fill="none" stroke="#000000" stroke-dasharray="5,2" d="M1205.7369,-852.1618C1210.1744,-856.9917 1214.6047,-861.8139 1219.0127,-866.6118"/>
<polygon fill="none" stroke="#000000" points="1211.3918,-873.8367 1239.4206,-888.8247 1226.8561,-859.6291 1211.3918,-873.8367"/>
</g>
<!-- 6 -->
<g id="node7" class="node">
<title>6</title>
<polygon fill="#f2f2f2" stroke="#000000" points="370.5512,-914.3 370.5512,-1106.3 659.498,-1106.3 659.498,-914.3 370.5512,-914.3"/>
<text text-anchor="middle" x="515.0246" y="-1089.7" font-family="Times,serif" font-size="14.00" fill="#000000">&lt;&lt;Library&gt;&gt;</text>
<text text-anchor="middle" x="515.0246" y="-1072.9" font-family="Times,serif" font-size="14.00" fill="#000000">SafeMath</text>
<polyline fill="none" stroke="#000000" points="370.5512,-1064.7 659.498,-1064.7 "/>
<text text-anchor="middle" x="515.0246" y="-1048.1" font-family="Times,serif" font-size="14.00" fill="#000000"> </text>
<polyline fill="none" stroke="#000000" points="370.5512,-1039.9 659.498,-1039.9 "/>
<text text-anchor="start" x="378.5512" y="-1023.3" font-family="Times,serif" font-size="14.00" fill="#000000">Internal:</text>
<text text-anchor="start" x="378.5512" y="-1006.5" font-family="Times,serif" font-size="14.00" fill="#000000"> &#160;&#160;&#160;add(a: uint, b: uint): uint</text>
<text text-anchor="start" x="378.5512" y="-989.7" font-family="Times,serif" font-size="14.00" fill="#000000"> &#160;&#160;&#160;sub(a: uint, b: uint): uint</text>
<text text-anchor="start" x="378.5512" y="-972.9" font-family="Times,serif" font-size="14.00" fill="#000000"> &#160;&#160;&#160;sub(a: uint, b: uint, errorMessage: string): uint</text>
<text text-anchor="start" x="378.5512" y="-956.1" font-family="Times,serif" font-size="14.00" fill="#000000"> &#160;&#160;&#160;mul(a: uint, b: uint): uint</text>
<text text-anchor="start" x="378.5512" y="-939.3" font-family="Times,serif" font-size="14.00" fill="#000000"> &#160;&#160;&#160;div(a: uint, b: uint): uint</text>
<text text-anchor="start" x="378.5512" y="-922.5" font-family="Times,serif" font-size="14.00" fill="#000000"> &#160;&#160;&#160;div(a: uint, b: uint, errorMessage: string): uint</text>
</g>
<!-- 3&#45;&gt;6 -->
<g id="edge4" class="edge">
<title>3&#45;&gt;6</title>
<path fill="none" stroke="#000000" stroke-dasharray="5,2" d="M840.9692,-847.86C837.9908,-849.4822 835.0085,-851.0634 832.0246,-852.6 780.2456,-879.2633 759.1369,-864.7027 706.0246,-888.6 692.3473,-894.754 678.5053,-901.7759 664.8515,-909.2707"/>
<polygon fill="#000000" stroke="#000000" points="662.9371,-906.3308 655.9097,-914.2596 666.3478,-912.4437 662.9371,-906.3308"/>
</g>
<!-- 3&#45;&gt;1 -->
<g id="edge2" class="edge">
<title>3&#45;&gt;1</title>
<path fill="none" stroke="#000000" d="M931.432,-852.1618C914.7899,-876.6643 898.2833,-900.9674 883.3851,-922.9023"/>
<polygon fill="none" stroke="#000000" points="874.5873,-917.1674 866.4175,-947.884 891.9593,-928.9664 874.5873,-917.1674"/>
</g>
<!-- 4 -->
<g id="node5" class="node">
<title>4</title>
<polygon fill="#f2f2f2" stroke="#000000" points="1272.8601,-584.5 1272.8601,-776.5 1625.1891,-776.5 1625.1891,-584.5 1272.8601,-584.5"/>
<text text-anchor="middle" x="1449.0246" y="-759.9" font-family="Times,serif" font-size="14.00" fill="#000000">ERC20Detailed</text>
<polyline fill="none" stroke="#000000" points="1272.8601,-751.7 1625.1891,-751.7 "/>
<text text-anchor="start" x="1280.8601" y="-735.1" font-family="Times,serif" font-size="14.00" fill="#000000">Private:</text>
<text text-anchor="start" x="1280.8601" y="-718.3" font-family="Times,serif" font-size="14.00" fill="#000000"> &#160;&#160;_name: string</text>
<text text-anchor="start" x="1280.8601" y="-701.5" font-family="Times,serif" font-size="14.00" fill="#000000"> &#160;&#160;_symbol: string</text>
<text text-anchor="start" x="1280.8601" y="-684.7" font-family="Times,serif" font-size="14.00" fill="#000000"> &#160;&#160;_decimals: uint8</text>
<polyline fill="none" stroke="#000000" points="1272.8601,-676.5 1625.1891,-676.5 "/>
<text text-anchor="start" x="1280.8601" y="-659.9" font-family="Times,serif" font-size="14.00" fill="#000000">Public:</text>
<text text-anchor="start" x="1280.8601" y="-643.1" font-family="Times,serif" font-size="14.00" fill="#000000"> &#160;&#160;&#160;constructor(name: string, symbol: string, decimals: uint8)</text>
<text text-anchor="start" x="1280.8601" y="-626.3" font-family="Times,serif" font-size="14.00" fill="#000000"> &#160;&#160;&#160;name(): string</text>
<text text-anchor="start" x="1280.8601" y="-609.5" font-family="Times,serif" font-size="14.00" fill="#000000"> &#160;&#160;&#160;symbol(): string</text>
<text text-anchor="start" x="1280.8601" y="-592.7" font-family="Times,serif" font-size="14.00" fill="#000000"> &#160;&#160;&#160;decimals(): uint8</text>
</g>
<!-- 4&#45;&gt;0 -->
<g id="edge5" class="edge">
<title>4&#45;&gt;0</title>
<path fill="none" stroke="#000000" stroke-dasharray="5,2" d="M1420.4155,-776.7784C1412.6793,-802.8132 1404.1177,-831.6255 1395.7256,-859.8675"/>
<polygon fill="none" stroke="#000000" points="1385.5634,-857.2037 1387.0832,-888.9518 1405.6935,-863.1854 1385.5634,-857.2037"/>
</g>
<!-- 5 -->
<g id="node6" class="node">
<title>5</title>
<polygon fill="#f2f2f2" stroke="#000000" points="1475.0099,-338.7 1475.0099,-463.5 1673.0393,-463.5 1673.0393,-338.7 1475.0099,-338.7"/>
<text text-anchor="middle" x="1574.0246" y="-446.9" font-family="Times,serif" font-size="14.00" fill="#000000">ReentrancyGuard</text>
<polyline fill="none" stroke="#000000" points="1475.0099,-438.7 1673.0393,-438.7 "/>
<text text-anchor="start" x="1483.0099" y="-422.1" font-family="Times,serif" font-size="14.00" fill="#000000">Private:</text>
<text text-anchor="start" x="1483.0099" y="-405.3" font-family="Times,serif" font-size="14.00" fill="#000000"> &#160;&#160;_guardCounter: uint</text>
<polyline fill="none" stroke="#000000" points="1475.0099,-397.1 1673.0393,-397.1 "/>
<text text-anchor="start" x="1483.0099" y="-380.5" font-family="Times,serif" font-size="14.00" fill="#000000">Public:</text>
<text text-anchor="start" x="1483.0099" y="-363.7" font-family="Times,serif" font-size="14.00" fill="#000000"> &#160;&#160;&#160;&lt;&lt;modifier&gt;&gt; nonReentrant()</text>
<text text-anchor="start" x="1483.0099" y="-346.9" font-family="Times,serif" font-size="14.00" fill="#000000"> &#160;&#160;&#160;constructor()</text>
</g>
<!-- 8 -->
<g id="node9" class="node">
<title>8</title>
<polygon fill="#f2f2f2" stroke="#000000" points="139.3681,-592.9 139.3681,-768.1 580.6811,-768.1 580.6811,-592.9 139.3681,-592.9"/>
<text text-anchor="middle" x="360.0246" y="-751.5" font-family="Times,serif" font-size="14.00" fill="#000000">&lt;&lt;Library&gt;&gt;</text>
<text text-anchor="middle" x="360.0246" y="-734.7" font-family="Times,serif" font-size="14.00" fill="#000000">SafeERC20</text>
<polyline fill="none" stroke="#000000" points="139.3681,-726.5 580.6811,-726.5 "/>
<text text-anchor="middle" x="360.0246" y="-709.9" font-family="Times,serif" font-size="14.00" fill="#000000"> </text>
<polyline fill="none" stroke="#000000" points="139.3681,-701.7 580.6811,-701.7 "/>
<text text-anchor="start" x="147.3681" y="-685.1" font-family="Times,serif" font-size="14.00" fill="#000000">Private:</text>
<text text-anchor="start" x="147.3681" y="-668.3" font-family="Times,serif" font-size="14.00" fill="#000000"> &#160;&#160;&#160;callOptionalReturn(token: IERC20, data: bytes)</text>
<text text-anchor="start" x="147.3681" y="-651.5" font-family="Times,serif" font-size="14.00" fill="#000000">Internal:</text>
<text text-anchor="start" x="147.3681" y="-634.7" font-family="Times,serif" font-size="14.00" fill="#000000"> &#160;&#160;&#160;safeTransfer(token: IERC20, to: address, value: uint)</text>
<text text-anchor="start" x="147.3681" y="-617.9" font-family="Times,serif" font-size="14.00" fill="#000000"> &#160;&#160;&#160;safeTransferFrom(token: IERC20, from: address, to: address, value: uint)</text>
<text text-anchor="start" x="147.3681" y="-601.1" font-family="Times,serif" font-size="14.00" fill="#000000"> &#160;&#160;&#160;safeApprove(token: IERC20, spender: address, value: uint)</text>
</g>
<!-- 8&#45;&gt;7 -->
<g id="edge7" class="edge">
<title>8&#45;&gt;7</title>
<path fill="none" stroke="#000000" stroke-dasharray="5,2" d="M293.6243,-768.4471C250.9091,-825.0233 196.4318,-897.1783 158.1394,-947.8965"/>
<polygon fill="#000000" stroke="#000000" points="155.1318,-946.0715 151.8995,-956.1613 160.7184,-950.2894 155.1318,-946.0715"/>
</g>
<!-- 8&#45;&gt;0 -->
<g id="edge8" class="edge">
<title>8&#45;&gt;0</title>
<path fill="none" stroke="#000000" stroke-dasharray="5,2" d="M471.3682,-768.2417C517.3791,-800.0259 572.816,-832.9153 628.0246,-852.6 760.3356,-899.7757 804.402,-860.4615 942.0246,-888.6 1004.548,-901.3836 1071.3037,-919.3437 1132.3643,-937.5492"/>
<polygon fill="#000000" stroke="#000000" points="1131.5297,-940.9528 1142.1137,-940.4724 1133.5402,-934.2477 1131.5297,-940.9528"/>
</g>
<!-- 8&#45;&gt;6 -->
<g id="edge6" class="edge">
<title>8&#45;&gt;6</title>
<path fill="none" stroke="#000000" stroke-dasharray="5,2" d="M401.3581,-768.4471C421.0754,-810.4004 444.8188,-860.9202 465.4947,-904.9131"/>
<polygon fill="#000000" stroke="#000000" points="462.4364,-906.6347 469.8576,-914.1962 468.7717,-903.6572 462.4364,-906.6347"/>
</g>
<!-- 9 -->
<g id="node10" class="node">
<title>9</title>
<polygon fill="#f2f2f2" stroke="#000000" points="1691.2065,-347.1 1691.2065,-455.1 1926.8427,-455.1 1926.8427,-347.1 1691.2065,-347.1"/>
<text text-anchor="middle" x="1809.0246" y="-438.5" font-family="Times,serif" font-size="14.00" fill="#000000">&lt;&lt;Interface&gt;&gt;</text>
<text text-anchor="middle" x="1809.0246" y="-421.7" font-family="Times,serif" font-size="14.00" fill="#000000">Oracle</text>
<polyline fill="none" stroke="#000000" points="1691.2065,-413.5 1926.8427,-413.5 "/>
<text text-anchor="middle" x="1809.0246" y="-396.9" font-family="Times,serif" font-size="14.00" fill="#000000"> </text>
<polyline fill="none" stroke="#000000" points="1691.2065,-388.7 1926.8427,-388.7 "/>
<text text-anchor="start" x="1699.2065" y="-372.1" font-family="Times,serif" font-size="14.00" fill="#000000">External:</text>
<text text-anchor="start" x="1699.2065" y="-355.3" font-family="Times,serif" font-size="14.00" fill="#000000"> &#160;&#160;&#160;&#160;getPriceUSD(reserve: address): uint</text>
</g>
<!-- 10 -->
<g id="node11" class="node">
<title>10</title>
<polygon fill="#f2f2f2" stroke="#000000" points="1945.1216,-330.3 1945.1216,-471.9 3152.9276,-471.9 3152.9276,-330.3 1945.1216,-330.3"/>
<text text-anchor="middle" x="2549.0246" y="-455.3" font-family="Times,serif" font-size="14.00" fill="#000000">&lt;&lt;Interface&gt;&gt;</text>
<text text-anchor="middle" x="2549.0246" y="-438.5" font-family="Times,serif" font-size="14.00" fill="#000000">UniswapRouter</text>
<polyline fill="none" stroke="#000000" points="1945.1216,-430.3 3152.9276,-430.3 "/>
<text text-anchor="middle" x="2549.0246" y="-413.7" font-family="Times,serif" font-size="14.00" fill="#000000"> </text>
<polyline fill="none" stroke="#000000" points="1945.1216,-405.5 3152.9276,-405.5 "/>
<text text-anchor="start" x="1953.1216" y="-388.9" font-family="Times,serif" font-size="14.00" fill="#000000">External:</text>
<text text-anchor="start" x="1953.1216" y="-372.1" font-family="Times,serif" font-size="14.00" fill="#000000"> &#160;&#160;&#160;&#160;addLiquidity(tokenA: address, tokenB: address, amountADesired: uint, amountBDesired: uint, amountAMin: uint, amountBMin: uint, to: address, deadline: uint): (amountA: uint, amountB: uint, liquidity: uint)</text>
<text text-anchor="start" x="1953.1216" y="-355.3" font-family="Times,serif" font-size="14.00" fill="#000000"> &#160;&#160;&#160;&#160;removeLiquidity(tokenA: address, tokenB: address, liquidity: uint, amountAMin: uint, amountBMin: uint, to: address, deadline: uint): (amountA: uint, amountB: uint)</text>
<text text-anchor="start" x="1953.1216" y="-338.5" font-family="Times,serif" font-size="14.00" fill="#000000"> &#160;&#160;&#160;&#160;factory(): address</text>
</g>
<!-- 11 -->
<g id="node12" class="node">
<title>11</title>
<polygon fill="#f2f2f2" stroke="#000000" points="3171.1672,-347.1 3171.1672,-455.1 3528.882,-455.1 3528.882,-347.1 3171.1672,-347.1"/>
<text text-anchor="middle" x="3350.0246" y="-438.5" font-family="Times,serif" font-size="14.00" fill="#000000">&lt;&lt;Interface&gt;&gt;</text>
<text text-anchor="middle" x="3350.0246" y="-421.7" font-family="Times,serif" font-size="14.00" fill="#000000">UniswapFactory</text>
<polyline fill="none" stroke="#000000" points="3171.1672,-413.5 3528.882,-413.5 "/>
<text text-anchor="middle" x="3350.0246" y="-396.9" font-family="Times,serif" font-size="14.00" fill="#000000"> </text>
<polyline fill="none" stroke="#000000" points="3171.1672,-388.7 3528.882,-388.7 "/>
<text text-anchor="start" x="3179.1672" y="-372.1" font-family="Times,serif" font-size="14.00" fill="#000000">External:</text>
<text text-anchor="start" x="3179.1672" y="-355.3" font-family="Times,serif" font-size="14.00" fill="#000000"> &#160;&#160;&#160;&#160;getPair(tokenA: address, tokenB: address): (pair: address)</text>
</g>
<!-- 12 -->
<g id="node13" class="node">
<title>12</title>
<polygon fill="#f2f2f2" stroke="#000000" points="1648.8766,-84.5 1648.8766,-209.3 1779.1726,-209.3 1779.1726,-84.5 1648.8766,-84.5"/>
<text text-anchor="middle" x="1714.0246" y="-192.7" font-family="Times,serif" font-size="14.00" fill="#000000">&lt;&lt;Interface&gt;&gt;</text>
<text text-anchor="middle" x="1714.0246" y="-175.9" font-family="Times,serif" font-size="14.00" fill="#000000">UniswapPair</text>
<polyline fill="none" stroke="#000000" points="1648.8766,-167.7 1779.1726,-167.7 "/>
<text text-anchor="middle" x="1714.0246" y="-151.1" font-family="Times,serif" font-size="14.00" fill="#000000"> </text>
<polyline fill="none" stroke="#000000" points="1648.8766,-142.9 1779.1726,-142.9 "/>
<text text-anchor="start" x="1656.8766" y="-126.3" font-family="Times,serif" font-size="14.00" fill="#000000">External:</text>
<text text-anchor="start" x="1656.8766" y="-109.5" font-family="Times,serif" font-size="14.00" fill="#000000"> &#160;&#160;&#160;&#160;token0(): address</text>
<text text-anchor="start" x="1656.8766" y="-92.7" font-family="Times,serif" font-size="14.00" fill="#000000"> &#160;&#160;&#160;&#160;token1(): address</text>
</g>
<!-- 13 -->
<g id="node14" class="node">
<title>13</title>
<polygon fill="#f2f2f2" stroke="#000000" points="871.8601,-338.7 871.8601,-463.5 1224.1891,-463.5 1224.1891,-338.7 871.8601,-338.7"/>
<text text-anchor="middle" x="1048.0246" y="-446.9" font-family="Times,serif" font-size="14.00" fill="#000000">SupplyToken</text>
<polyline fill="none" stroke="#000000" points="871.8601,-438.7 1224.1891,-438.7 "/>
<text text-anchor="middle" x="1048.0246" y="-422.1" font-family="Times,serif" font-size="14.00" fill="#000000"> </text>
<polyline fill="none" stroke="#000000" points="871.8601,-413.9 1224.1891,-413.9 "/>
<text text-anchor="start" x="879.8601" y="-397.3" font-family="Times,serif" font-size="14.00" fill="#000000">Public:</text>
<text text-anchor="start" x="879.8601" y="-380.5" font-family="Times,serif" font-size="14.00" fill="#000000"> &#160;&#160;&#160;constructor(name: string, symbol: string, decimals: uint8)</text>
<text text-anchor="start" x="879.8601" y="-363.7" font-family="Times,serif" font-size="14.00" fill="#000000"> &#160;&#160;&#160;mint(account: address, amount: uint)</text>
<text text-anchor="start" x="879.8601" y="-346.9" font-family="Times,serif" font-size="14.00" fill="#000000"> &#160;&#160;&#160;burn(account: address, amount: uint)</text>
</g>
<!-- 13&#45;&gt;7 -->
<g id="edge13" class="edge">
<title>13&#45;&gt;7</title>
<path fill="none" stroke="#000000" stroke-dasharray="5,2" d="M871.8126,-409.5319C619.321,-423.412 179.3967,-454.9907 130.0246,-508.4 19.3885,-628.0828 60.1823,-840.5583 90.2571,-946.5212"/>
<polygon fill="#000000" stroke="#000000" points="86.8953,-947.4951 93.0375,-956.1278 93.6193,-945.5489 86.8953,-947.4951"/>
</g>
<!-- 13&#45;&gt;2 -->
<g id="edge11" class="edge">
<title>13&#45;&gt;2</title>
<path fill="none" stroke="#000000" d="M894.1531,-463.5781C871.8991,-476.4527 850.3574,-491.3754 832.0246,-508.4 811.7606,-527.2179 794.2349,-550.9781 779.7042,-574.7861"/>
<polygon fill="none" stroke="#000000" points="770.5496,-569.6435 764.8558,-600.9139 788.8073,-580.0194 770.5496,-569.6435"/>
</g>
<!-- 13&#45;&gt;3 -->
<g id="edge9" class="edge">
<title>13&#45;&gt;3</title>
<path fill="none" stroke="#000000" d="M1048.0246,-463.8028C1048.0246,-468.5592 1048.0246,-473.4887 1048.0246,-478.5555"/>
<polygon fill="none" stroke="#000000" points="1037.5247,-478.8267 1048.0246,-508.8267 1058.5247,-478.8267 1037.5247,-478.8267"/>
</g>
<!-- 13&#45;&gt;4 -->
<g id="edge10" class="edge">
<title>13&#45;&gt;4</title>
<path fill="none" stroke="#000000" d="M1188.5145,-463.5021C1214.3916,-477.0379 1240.6083,-492.2016 1264.0246,-508.4 1287.7208,-524.7919 1311.436,-544.1019 1333.6006,-563.7534"/>
<polygon fill="none" stroke="#000000" points="1326.8301,-571.7897 1356.0713,-584.248 1340.9815,-556.2739 1326.8301,-571.7897"/>
</g>
<!-- 13&#45;&gt;6 -->
<g id="edge14" class="edge">
<title>13&#45;&gt;6</title>
<path fill="none" stroke="#000000" stroke-dasharray="5,2" d="M871.6426,-425.6936C771.8776,-443.3928 660.6939,-470.7977 628.0246,-508.4 577.5543,-566.4914 611.0649,-778.5786 590.0246,-852.6 585.0939,-869.9467 578.4052,-887.7465 571.0417,-904.8523"/>
<polygon fill="#000000" stroke="#000000" points="567.7184,-903.7145 566.8884,-914.2768 574.1239,-906.5375 567.7184,-903.7145"/>
</g>
<!-- 13&#45;&gt;8 -->
<g id="edge12" class="edge">
<title>13&#45;&gt;8</title>
<path fill="none" stroke="#000000" stroke-dasharray="5,2" d="M871.6168,-425.9817C785.5037,-442.3017 681.9862,-468.2709 595.0246,-508.4 550.9786,-528.7253 506.9455,-557.9829 469.1,-586.6248"/>
<polygon fill="#000000" stroke="#000000" points="466.94,-583.8705 461.1204,-592.7239 471.1908,-589.4321 466.94,-583.8705"/>
</g>
<!-- 14 -->
<g id="node15" class="node">
<title>14</title>
<polygon fill="#f2f2f2" stroke="#000000" points="1187.3629,-.5 1187.3629,-293.3 1630.6863,-293.3 1630.6863,-.5 1187.3629,-.5"/>
<text text-anchor="middle" x="1409.0246" y="-276.7" font-family="Times,serif" font-size="14.00" fill="#000000">SingleSidedAMM</text>
<polyline fill="none" stroke="#000000" points="1187.3629,-268.5 1630.6863,-268.5 "/>
<text text-anchor="start" x="1195.3629" y="-251.9" font-family="Times,serif" font-size="14.00" fill="#000000">Public:</text>
<text text-anchor="start" x="1195.3629" y="-235.1" font-family="Times,serif" font-size="14.00" fill="#000000"> &#160;&#160;LINK: Oracle</text>
<text text-anchor="start" x="1195.3629" y="-218.3" font-family="Times,serif" font-size="14.00" fill="#000000"> &#160;&#160;UNI: UniswapRouter</text>
<text text-anchor="start" x="1195.3629" y="-201.5" font-family="Times,serif" font-size="14.00" fill="#000000"> &#160;&#160;tokens: mapping(address=&gt;address)</text>
<polyline fill="none" stroke="#000000" points="1187.3629,-193.3 1630.6863,-193.3 "/>
<text text-anchor="start" x="1195.3629" y="-176.7" font-family="Times,serif" font-size="14.00" fill="#000000">Internal:</text>
<text text-anchor="start" x="1195.3629" y="-159.9" font-family="Times,serif" font-size="14.00" fill="#000000"> &#160;&#160;&#160;_deposit(token: ERC20Detailed, amount: uint)</text>
<text text-anchor="start" x="1195.3629" y="-143.1" font-family="Times,serif" font-size="14.00" fill="#000000"> &#160;&#160;&#160;_withdraw(token: address, amount: uint): (amountA: uint, amountB: uint)</text>
<text text-anchor="start" x="1195.3629" y="-126.3" font-family="Times,serif" font-size="14.00" fill="#000000"> &#160;&#160;&#160;_return(token: address, amountA: uint, amountB: uint)</text>
<text text-anchor="start" x="1195.3629" y="-109.5" font-family="Times,serif" font-size="14.00" fill="#000000">External:</text>
<text text-anchor="start" x="1195.3629" y="-92.7" font-family="Times,serif" font-size="14.00" fill="#000000"> &#160;&#160;&#160;depositAll(token: ERC20Detailed)</text>
<text text-anchor="start" x="1195.3629" y="-75.9" font-family="Times,serif" font-size="14.00" fill="#000000"> &#160;&#160;&#160;withdraw(token: address, amount: uint)</text>
<text text-anchor="start" x="1195.3629" y="-59.1" font-family="Times,serif" font-size="14.00" fill="#000000">Public:</text>
<text text-anchor="start" x="1195.3629" y="-42.3" font-family="Times,serif" font-size="14.00" fill="#000000"> &#160;&#160;&#160;constructor()</text>
<text text-anchor="start" x="1195.3629" y="-25.5" font-family="Times,serif" font-size="14.00" fill="#000000"> &#160;&#160;&#160;getUNI(_token: address): address</text>
<text text-anchor="start" x="1195.3629" y="-8.7" font-family="Times,serif" font-size="14.00" fill="#000000"> &#160;&#160;&#160;deposit(token: ERC20Detailed, amount: uint)</text>
</g>
<!-- 14&#45;&gt;7 -->
<g id="edge19" class="edge">
<title>14&#45;&gt;7</title>
<path fill="none" stroke="#000000" stroke-dasharray="5,2" d="M1187.3494,-158.9121C880.7207,-179.0397 346.4262,-227.8335 183.0246,-329.8 -19.4812,-456.1684 22.846,-616.8134 60.0246,-852.6 65.0159,-884.2549 75.3165,-918.2135 85.3623,-946.4805"/>
<polygon fill="#000000" stroke="#000000" points="82.1973,-948.0198 88.8958,-956.2284 88.7783,-945.6342 82.1973,-948.0198"/>
</g>
<!-- 14&#45;&gt;0 -->
<g id="edge24" class="edge">
<title>14&#45;&gt;0</title>
<path fill="none" stroke="#000000" stroke-dasharray="5,2" d="M1430.9807,-293.4988C1444.0542,-376.6198 1459.359,-465.478 1466.0246,-472.4 1518.9921,-527.405 1586.0177,-449.0161 1634.0246,-508.4 1730.1983,-627.3656 1711.5189,-720.7029 1634.0246,-852.6 1617.6927,-880.3972 1594.4864,-903.6526 1568.303,-923.0066"/>
<polygon fill="#000000" stroke="#000000" points="1566.1802,-920.2218 1560.0858,-928.8884 1570.2546,-925.9139 1566.1802,-920.2218"/>
</g>
<!-- 14&#45;&gt;3 -->
<g id="edge15" class="edge">
<title>14&#45;&gt;3</title>
<path fill="none" stroke="#000000" d="M1339.0193,-293.349C1309.1666,-350.9311 1272.1937,-416.4996 1233.0246,-472.4 1230.1823,-476.4564 1227.2712,-480.5214 1224.3013,-484.5879"/>
<polygon fill="none" stroke="#000000" points="1215.811,-478.4071 1206.078,-508.6647 1232.5555,-491.0808 1215.811,-478.4071"/>
</g>
<!-- 14&#45;&gt;4 -->
<g id="edge16" class="edge">
<title>14&#45;&gt;4</title>
<path fill="none" stroke="#000000" d="M1419.7392,-293.5478C1423.8545,-349.5199 1428.6204,-413.9186 1433.0246,-472.4 1435.0156,-498.838 1437.1756,-527.163 1439.2452,-554.1367"/>
<polygon fill="none" stroke="#000000" points="1428.8041,-555.3061 1441.5736,-584.4127 1449.7422,-553.6958 1428.8041,-555.3061"/>
</g>
<!-- 14&#45;&gt;5 -->
<g id="edge17" class="edge">
<title>14&#45;&gt;5</title>
<path fill="none" stroke="#000000" d="M1504.2889,-293.6648C1508.5995,-300.3057 1512.8625,-306.8732 1517.0292,-313.2925"/>
<polygon fill="none" stroke="#000000" points="1508.3505,-319.2074 1533.4914,-338.6544 1525.9651,-307.7739 1508.3505,-319.2074"/>
</g>
<!-- 14&#45;&gt;6 -->
<g id="edge20" class="edge">
<title>14&#45;&gt;6</title>
<path fill="none" stroke="#000000" stroke-dasharray="5,2" d="M1187.2611,-193.7748C837.7414,-269.9377 191.8515,-420.8385 130.0246,-508.4 41.787,-633.3653 41.8628,-727.5812 130.0246,-852.6 157.4885,-891.5454 186.6571,-871.2063 231.0246,-888.6 273.597,-905.29 319.3075,-924.3591 361.3457,-942.3722"/>
<polygon fill="#000000" stroke="#000000" points="359.9677,-945.5895 370.5374,-946.319 362.7296,-939.1574 359.9677,-945.5895"/>
</g>
<!-- 14&#45;&gt;8 -->
<g id="edge18" class="edge">
<title>14&#45;&gt;8</title>
<path fill="none" stroke="#000000" stroke-dasharray="5,2" d="M1187.2239,-207.4257C1086.0393,-238.4963 966.0823,-280.2765 863.0246,-329.8 730.995,-393.2457 705.9414,-424.2743 586.0246,-508.4 550.9839,-532.9822 513.7261,-560.6777 479.7821,-586.55"/>
<polygon fill="#000000" stroke="#000000" points="477.5075,-583.8831 471.6851,-592.7347 481.7566,-589.446 477.5075,-583.8831"/>
</g>
<!-- 14&#45;&gt;9 -->
<g id="edge21" class="edge">
<title>14&#45;&gt;9</title>
<path fill="none" stroke="#000000" d="M1630.937,-288.0252C1633.9856,-289.9626 1637.0161,-291.8883 1640.0246,-293.8 1664.4276,-309.3062 1690.8172,-326.0656 1715.3252,-341.6262"/>
<polygon fill="#000000" stroke="#000000" points="1713.591,-344.6709 1723.9092,-347.0762 1717.343,-338.7614 1713.591,-344.6709"/>
</g>
<!-- 14&#45;&gt;10 -->
<g id="edge22" class="edge">
<title>14&#45;&gt;10</title>
<path fill="none" stroke="#000000" d="M1630.9562,-290.4397C1633.9788,-291.6031 1637.0023,-292.7242 1640.0246,-293.8 1642.2915,-294.6069 1773.1011,-310.1789 1934.8092,-329.2217"/>
<polygon fill="#000000" stroke="#000000" points="1934.6654,-332.7289 1945.0061,-330.4223 1935.484,-325.7769 1934.6654,-332.7289"/>
</g>
<!-- 14&#45;&gt;11 -->
<g id="edge23" class="edge">
<title>14&#45;&gt;11</title>
<path fill="none" stroke="#000000" stroke-dasharray="5,2" d="M1630.8222,-290.8462C1633.887,-291.8814 1636.9552,-292.8672 1640.0246,-293.8 1801.874,-342.9867 2996.0093,-297.3427 3162.0246,-329.8 3179.5849,-333.2332 3197.6501,-338.15 3215.3141,-343.8186"/>
<polygon fill="#000000" stroke="#000000" points="3214.4873,-347.2313 3225.0804,-347.0406 3216.6804,-340.5838 3214.4873,-347.2313"/>
</g>
<!-- 14&#45;&gt;13 -->
<g id="edge25" class="edge">
<title>14&#45;&gt;13</title>
<path fill="none" stroke="#000000" stroke-dasharray="5,2" d="M1200.8594,-293.4806C1181.6232,-307.0259 1162.8163,-320.2688 1145.3409,-332.5742"/>
<polygon fill="#000000" stroke="#000000" points="1143.0342,-329.9178 1136.873,-338.537 1147.0644,-335.6412 1143.0342,-329.9178"/>
</g>
</g>
</svg>
