<?xml version="1.0" encoding="UTF-8" standalone="no"?>
<!DOCTYPE svg PUBLIC "-//W3C//DTD SVG 1.1//EN"
 "http://www.w3.org/Graphics/SVG/1.1/DTD/svg11.dtd">
<!-- Generated by graphviz version 2.40.1 (20161225.0304)
 -->
<!-- Title: UmlClassDiagram Pages: 1 -->
<svg width="3236pt" height="1012pt"
 viewBox="0.00 0.00 3236.17 1011.80" xmlns="http://www.w3.org/2000/svg" xmlns:xlink="http://www.w3.org/1999/xlink">
<g id="graph0" class="graph" transform="scale(1 1) rotate(0) translate(4 1007.8)">
<title>UmlClassDiagram</title>
<polygon fill="#ffffff" stroke="transparent" points="-4,4 -4,-1007.8 3232.1741,-1007.8 3232.1741,4 -4,4"/>
<!-- 6 -->
<g id="node1" class="node">
<title>6</title>
<polygon fill="#f2f2f2" stroke="#000000" points="840.508,-464.7 840.508,-639.9 1281.821,-639.9 1281.821,-464.7 840.508,-464.7"/>
<text text-anchor="middle" x="1061.1645" y="-623.3" font-family="Times,serif" font-size="14.00" fill="#000000">&lt;&lt;Library&gt;&gt;</text>
<text text-anchor="middle" x="1061.1645" y="-606.5" font-family="Times,serif" font-size="14.00" fill="#000000">SafeERC20</text>
<polyline fill="none" stroke="#000000" points="840.508,-598.3 1281.821,-598.3 "/>
<text text-anchor="middle" x="1061.1645" y="-581.7" font-family="Times,serif" font-size="14.00" fill="#000000"> </text>
<polyline fill="none" stroke="#000000" points="840.508,-573.5 1281.821,-573.5 "/>
<text text-anchor="start" x="848.508" y="-556.9" font-family="Times,serif" font-size="14.00" fill="#000000">Private:</text>
<text text-anchor="start" x="848.508" y="-540.1" font-family="Times,serif" font-size="14.00" fill="#000000"> &#160;&#160;&#160;callOptionalReturn(token: IERC20, data: bytes)</text>
<text text-anchor="start" x="848.508" y="-523.3" font-family="Times,serif" font-size="14.00" fill="#000000">Internal:</text>
<text text-anchor="start" x="848.508" y="-506.5" font-family="Times,serif" font-size="14.00" fill="#000000"> &#160;&#160;&#160;safeTransfer(token: IERC20, to: address, value: uint)</text>
<text text-anchor="start" x="848.508" y="-489.7" font-family="Times,serif" font-size="14.00" fill="#000000"> &#160;&#160;&#160;safeTransferFrom(token: IERC20, from: address, to: address, value: uint)</text>
<text text-anchor="start" x="848.508" y="-472.9" font-family="Times,serif" font-size="14.00" fill="#000000"> &#160;&#160;&#160;safeApprove(token: IERC20, spender: address, value: uint)</text>
</g>
<!-- 0 -->
<g id="node2" class="node">
<title>0</title>
<polygon fill="#f2f2f2" stroke="#000000" points="70.3646,-760.9 70.3646,-1003.3 487.9644,-1003.3 487.9644,-760.9 70.3646,-760.9"/>
<text text-anchor="middle" x="279.1645" y="-986.7" font-family="Times,serif" font-size="14.00" fill="#000000">&lt;&lt;Interface&gt;&gt;</text>
<text text-anchor="middle" x="279.1645" y="-969.9" font-family="Times,serif" font-size="14.00" fill="#000000">IERC20</text>
<polyline fill="none" stroke="#000000" points="70.3646,-961.7 487.9644,-961.7 "/>
<text text-anchor="middle" x="279.1645" y="-945.1" font-family="Times,serif" font-size="14.00" fill="#000000"> </text>
<polyline fill="none" stroke="#000000" points="70.3646,-936.9 487.9644,-936.9 "/>
<text text-anchor="start" x="78.3646" y="-920.3" font-family="Times,serif" font-size="14.00" fill="#000000">External:</text>
<text text-anchor="start" x="78.3646" y="-903.5" font-family="Times,serif" font-size="14.00" fill="#000000"> &#160;&#160;&#160;&#160;totalSupply(): uint</text>
<text text-anchor="start" x="78.3646" y="-886.7" font-family="Times,serif" font-size="14.00" fill="#000000"> &#160;&#160;&#160;&#160;balanceOf(account: address): uint</text>
<text text-anchor="start" x="78.3646" y="-869.9" font-family="Times,serif" font-size="14.00" fill="#000000"> &#160;&#160;&#160;&#160;transfer(recipient: address, amount: uint): bool</text>
<text text-anchor="start" x="78.3646" y="-853.1" font-family="Times,serif" font-size="14.00" fill="#000000"> &#160;&#160;&#160;&#160;allowance(owner: address, spender: address): uint</text>
<text text-anchor="start" x="78.3646" y="-836.3" font-family="Times,serif" font-size="14.00" fill="#000000"> &#160;&#160;&#160;&#160;approve(spender: address, amount: uint): bool</text>
<text text-anchor="start" x="78.3646" y="-819.5" font-family="Times,serif" font-size="14.00" fill="#000000"> &#160;&#160;&#160;&#160;transferFrom(sender: address, recipient: address, amount: uint): bool</text>
<text text-anchor="start" x="78.3646" y="-802.7" font-family="Times,serif" font-size="14.00" fill="#000000">Public:</text>
<text text-anchor="start" x="78.3646" y="-785.9" font-family="Times,serif" font-size="14.00" fill="#000000"> &#160;&#160;&#160;&lt;&lt;event&gt;&gt; Transfer(from: address, to: address, value: uint)</text>
<text text-anchor="start" x="78.3646" y="-769.1" font-family="Times,serif" font-size="14.00" fill="#000000"> &#160;&#160;&#160;&lt;&lt;event&gt;&gt; Approval(owner: address, spender: address, value: uint)</text>
</g>
<!-- 6&#45;&gt;0 -->
<g id="edge3" class="edge">
<title>6&#45;&gt;0</title>
<path fill="none" stroke="#000000" stroke-dasharray="5,2" d="M968.0294,-639.9293C928.6968,-671.9003 880.5891,-704.9521 831.1645,-724.4 695.2141,-777.8946 641.7392,-717.7941 497.7831,-760.4288"/>
<polygon fill="#000000" stroke="#000000" points="496.6963,-757.1012 488.1683,-763.388 498.7554,-763.7915 496.6963,-757.1012"/>
</g>
<!-- 4 -->
<g id="node5" class="node">
<title>4</title>
<polygon fill="#f2f2f2" stroke="#000000" points="916.6911,-786.1 916.6911,-978.1 1205.6379,-978.1 1205.6379,-786.1 916.6911,-786.1"/>
<text text-anchor="middle" x="1061.1645" y="-961.5" font-family="Times,serif" font-size="14.00" fill="#000000">&lt;&lt;Library&gt;&gt;</text>
<text text-anchor="middle" x="1061.1645" y="-944.7" font-family="Times,serif" font-size="14.00" fill="#000000">SafeMath</text>
<polyline fill="none" stroke="#000000" points="916.6911,-936.5 1205.6379,-936.5 "/>
<text text-anchor="middle" x="1061.1645" y="-919.9" font-family="Times,serif" font-size="14.00" fill="#000000"> </text>
<polyline fill="none" stroke="#000000" points="916.6911,-911.7 1205.6379,-911.7 "/>
<text text-anchor="start" x="924.6911" y="-895.1" font-family="Times,serif" font-size="14.00" fill="#000000">Internal:</text>
<text text-anchor="start" x="924.6911" y="-878.3" font-family="Times,serif" font-size="14.00" fill="#000000"> &#160;&#160;&#160;add(a: uint, b: uint): uint</text>
<text text-anchor="start" x="924.6911" y="-861.5" font-family="Times,serif" font-size="14.00" fill="#000000"> &#160;&#160;&#160;sub(a: uint, b: uint): uint</text>
<text text-anchor="start" x="924.6911" y="-844.7" font-family="Times,serif" font-size="14.00" fill="#000000"> &#160;&#160;&#160;sub(a: uint, b: uint, errorMessage: string): uint</text>
<text text-anchor="start" x="924.6911" y="-827.9" font-family="Times,serif" font-size="14.00" fill="#000000"> &#160;&#160;&#160;mul(a: uint, b: uint): uint</text>
<text text-anchor="start" x="924.6911" y="-811.1" font-family="Times,serif" font-size="14.00" fill="#000000"> &#160;&#160;&#160;div(a: uint, b: uint): uint</text>
<text text-anchor="start" x="924.6911" y="-794.3" font-family="Times,serif" font-size="14.00" fill="#000000"> &#160;&#160;&#160;div(a: uint, b: uint, errorMessage: string): uint</text>
</g>
<!-- 6&#45;&gt;4 -->
<g id="edge1" class="edge">
<title>6&#45;&gt;4</title>
<path fill="none" stroke="#000000" stroke-dasharray="5,2" d="M1061.1645,-640.2471C1061.1645,-681.9371 1061.1645,-732.0864 1061.1645,-775.884"/>
<polygon fill="#000000" stroke="#000000" points="1057.6646,-775.9962 1061.1645,-785.9962 1064.6646,-775.9963 1057.6646,-775.9962"/>
</g>
<!-- 5 -->
<g id="node6" class="node">
<title>5</title>
<polygon fill="#f2f2f2" stroke="#000000" points="1230.1399,-828.1 1230.1399,-936.1 1452.1891,-936.1 1452.1891,-828.1 1230.1399,-828.1"/>
<text text-anchor="middle" x="1341.1645" y="-919.5" font-family="Times,serif" font-size="14.00" fill="#000000">&lt;&lt;Library&gt;&gt;</text>
<text text-anchor="middle" x="1341.1645" y="-902.7" font-family="Times,serif" font-size="14.00" fill="#000000">Address</text>
<polyline fill="none" stroke="#000000" points="1230.1399,-894.5 1452.1891,-894.5 "/>
<text text-anchor="middle" x="1341.1645" y="-877.9" font-family="Times,serif" font-size="14.00" fill="#000000"> </text>
<polyline fill="none" stroke="#000000" points="1230.1399,-869.7 1452.1891,-869.7 "/>
<text text-anchor="start" x="1238.1399" y="-853.1" font-family="Times,serif" font-size="14.00" fill="#000000">Internal:</text>
<text text-anchor="start" x="1238.1399" y="-836.3" font-family="Times,serif" font-size="14.00" fill="#000000"> &#160;&#160;&#160;isContract(account: address): bool</text>
</g>
<!-- 6&#45;&gt;5 -->
<g id="edge2" class="edge">
<title>6&#45;&gt;5</title>
<path fill="none" stroke="#000000" stroke-dasharray="5,2" d="M1135.8315,-640.2471C1184.0628,-697.0566 1245.6297,-769.5737 1288.7157,-820.3228"/>
<polygon fill="#000000" stroke="#000000" points="1286.0605,-822.6033 1295.2007,-827.9613 1291.3968,-818.0729 1286.0605,-822.6033"/>
</g>
<!-- 2 -->
<g id="node3" class="node">
<title>2</title>
<polygon fill="#f2f2f2" stroke="#000000" points="408.1146,-380.7 408.1146,-723.9 822.2144,-723.9 822.2144,-380.7 408.1146,-380.7"/>
<text text-anchor="middle" x="615.1645" y="-707.3" font-family="Times,serif" font-size="14.00" fill="#000000">ERC20</text>
<polyline fill="none" stroke="#000000" points="408.1146,-699.1 822.2144,-699.1 "/>
<text text-anchor="start" x="416.1146" y="-682.5" font-family="Times,serif" font-size="14.00" fill="#000000">Private:</text>
<text text-anchor="start" x="416.1146" y="-665.7" font-family="Times,serif" font-size="14.00" fill="#000000"> &#160;&#160;_balances: mapping(address=&gt;uint)</text>
<text text-anchor="start" x="416.1146" y="-648.9" font-family="Times,serif" font-size="14.00" fill="#000000"> &#160;&#160;_allowances: mapping(address=&gt;mapping(address=&gt;uint))</text>
<text text-anchor="start" x="416.1146" y="-632.1" font-family="Times,serif" font-size="14.00" fill="#000000"> &#160;&#160;_totalSupply: uint</text>
<polyline fill="none" stroke="#000000" points="408.1146,-623.9 822.2144,-623.9 "/>
<text text-anchor="start" x="416.1146" y="-607.3" font-family="Times,serif" font-size="14.00" fill="#000000">Internal:</text>
<text text-anchor="start" x="416.1146" y="-590.5" font-family="Times,serif" font-size="14.00" fill="#000000"> &#160;&#160;&#160;_transfer(sender: address, recipient: address, amount: uint)</text>
<text text-anchor="start" x="416.1146" y="-573.7" font-family="Times,serif" font-size="14.00" fill="#000000"> &#160;&#160;&#160;_mint(account: address, amount: uint)</text>
<text text-anchor="start" x="416.1146" y="-556.9" font-family="Times,serif" font-size="14.00" fill="#000000"> &#160;&#160;&#160;_burn(account: address, amount: uint)</text>
<text text-anchor="start" x="416.1146" y="-540.1" font-family="Times,serif" font-size="14.00" fill="#000000"> &#160;&#160;&#160;_approve(owner: address, spender: address, amount: uint)</text>
<text text-anchor="start" x="416.1146" y="-523.3" font-family="Times,serif" font-size="14.00" fill="#000000">Public:</text>
<text text-anchor="start" x="416.1146" y="-506.5" font-family="Times,serif" font-size="14.00" fill="#000000"> &#160;&#160;&#160;totalSupply(): uint</text>
<text text-anchor="start" x="416.1146" y="-489.7" font-family="Times,serif" font-size="14.00" fill="#000000"> &#160;&#160;&#160;balanceOf(account: address): uint</text>
<text text-anchor="start" x="416.1146" y="-472.9" font-family="Times,serif" font-size="14.00" fill="#000000"> &#160;&#160;&#160;transfer(recipient: address, amount: uint): bool</text>
<text text-anchor="start" x="416.1146" y="-456.1" font-family="Times,serif" font-size="14.00" fill="#000000"> &#160;&#160;&#160;allowance(owner: address, spender: address): uint</text>
<text text-anchor="start" x="416.1146" y="-439.3" font-family="Times,serif" font-size="14.00" fill="#000000"> &#160;&#160;&#160;approve(spender: address, amount: uint): bool</text>
<text text-anchor="start" x="416.1146" y="-422.5" font-family="Times,serif" font-size="14.00" fill="#000000"> &#160;&#160;&#160;transferFrom(sender: address, recipient: address, amount: uint): bool</text>
<text text-anchor="start" x="416.1146" y="-405.7" font-family="Times,serif" font-size="14.00" fill="#000000"> &#160;&#160;&#160;increaseAllowance(spender: address, addedValue: uint): bool</text>
<text text-anchor="start" x="416.1146" y="-388.9" font-family="Times,serif" font-size="14.00" fill="#000000"> &#160;&#160;&#160;decreaseAllowance(spender: address, subtractedValue: uint): bool</text>
</g>
<!-- 2&#45;&gt;0 -->
<g id="edge5" class="edge">
<title>2&#45;&gt;0</title>
<path fill="none" stroke="#000000" stroke-dasharray="5,2" d="M440.2756,-723.9618C434.9612,-729.1781 429.656,-734.3854 424.3813,-739.5628"/>
<polygon fill="none" stroke="#000000" points="416.9781,-732.1165 402.9234,-760.6247 431.6884,-747.1034 416.9781,-732.1165"/>
</g>
<!-- 2&#45;&gt;4 -->
<g id="edge6" class="edge">
<title>2&#45;&gt;4</title>
<path fill="none" stroke="#000000" stroke-dasharray="5,2" d="M822.4468,-717.9201C825.3664,-720.1004 828.2735,-722.2614 831.1645,-724.4 856.1012,-742.8464 882.9614,-761.9368 909.2207,-780.1935"/>
<polygon fill="#000000" stroke="#000000" points="907.5103,-783.2666 917.7221,-786.0898 911.4997,-777.5147 907.5103,-783.2666"/>
</g>
<!-- 1 -->
<g id="node7" class="node">
<title>1</title>
<polygon fill="#f2f2f2" stroke="#000000" points="506.0922,-819.7 506.0922,-944.5 724.2368,-944.5 724.2368,-819.7 506.0922,-819.7"/>
<text text-anchor="middle" x="615.1645" y="-927.9" font-family="Times,serif" font-size="14.00" fill="#000000">Context</text>
<polyline fill="none" stroke="#000000" points="506.0922,-919.7 724.2368,-919.7 "/>
<text text-anchor="middle" x="615.1645" y="-903.1" font-family="Times,serif" font-size="14.00" fill="#000000"> </text>
<polyline fill="none" stroke="#000000" points="506.0922,-894.9 724.2368,-894.9 "/>
<text text-anchor="start" x="514.0922" y="-878.3" font-family="Times,serif" font-size="14.00" fill="#000000">Internal:</text>
<text text-anchor="start" x="514.0922" y="-861.5" font-family="Times,serif" font-size="14.00" fill="#000000"> &#160;&#160;&#160;_msgSender(): (payable: address)</text>
<text text-anchor="start" x="514.0922" y="-844.7" font-family="Times,serif" font-size="14.00" fill="#000000">Public:</text>
<text text-anchor="start" x="514.0922" y="-827.9" font-family="Times,serif" font-size="14.00" fill="#000000"> &#160;&#160;&#160;constructor()</text>
</g>
<!-- 2&#45;&gt;1 -->
<g id="edge4" class="edge">
<title>2&#45;&gt;1</title>
<path fill="none" stroke="#000000" d="M615.1645,-723.9618C615.1645,-746.5898 615.1645,-769.0477 615.1645,-789.6274"/>
<polygon fill="none" stroke="#000000" points="604.6646,-789.6839 615.1645,-819.684 625.6646,-789.684 604.6646,-789.6839"/>
</g>
<!-- 3 -->
<g id="node4" class="node">
<title>3</title>
<polygon fill="#f2f2f2" stroke="#000000" points="0,-456.3 0,-648.3 352.329,-648.3 352.329,-456.3 0,-456.3"/>
<text text-anchor="middle" x="176.1645" y="-631.7" font-family="Times,serif" font-size="14.00" fill="#000000">ERC20Detailed</text>
<polyline fill="none" stroke="#000000" points="0,-623.5 352.329,-623.5 "/>
<text text-anchor="start" x="8" y="-606.9" font-family="Times,serif" font-size="14.00" fill="#000000">Private:</text>
<text text-anchor="start" x="8" y="-590.1" font-family="Times,serif" font-size="14.00" fill="#000000"> &#160;&#160;_name: string</text>
<text text-anchor="start" x="8" y="-573.3" font-family="Times,serif" font-size="14.00" fill="#000000"> &#160;&#160;_symbol: string</text>
<text text-anchor="start" x="8" y="-556.5" font-family="Times,serif" font-size="14.00" fill="#000000"> &#160;&#160;_decimals: uint8</text>
<polyline fill="none" stroke="#000000" points="0,-548.3 352.329,-548.3 "/>
<text text-anchor="start" x="8" y="-531.7" font-family="Times,serif" font-size="14.00" fill="#000000">Public:</text>
<text text-anchor="start" x="8" y="-514.9" font-family="Times,serif" font-size="14.00" fill="#000000"> &#160;&#160;&#160;constructor(name: string, symbol: string, decimals: uint8)</text>
<text text-anchor="start" x="8" y="-498.1" font-family="Times,serif" font-size="14.00" fill="#000000"> &#160;&#160;&#160;name(): string</text>
<text text-anchor="start" x="8" y="-481.3" font-family="Times,serif" font-size="14.00" fill="#000000"> &#160;&#160;&#160;symbol(): string</text>
<text text-anchor="start" x="8" y="-464.5" font-family="Times,serif" font-size="14.00" fill="#000000"> &#160;&#160;&#160;decimals(): uint8</text>
</g>
<!-- 3&#45;&gt;0 -->
<g id="edge7" class="edge">
<title>3&#45;&gt;0</title>
<path fill="none" stroke="#000000" stroke-dasharray="5,2" d="M206.2333,-648.5784C214.407,-674.7502 223.4573,-703.7289 232.3221,-732.1133"/>
<polygon fill="none" stroke="#000000" points="222.3002,-735.246 241.2662,-760.7518 242.3454,-728.9856 222.3002,-735.246"/>
</g>
<!-- 7 -->
<g id="node8" class="node">
<title>7</title>
<polygon fill="#f2f2f2" stroke="#000000" points="1376.1196,-498.3 1376.1196,-606.3 1598.2094,-606.3 1598.2094,-498.3 1376.1196,-498.3"/>
<text text-anchor="middle" x="1487.1645" y="-589.7" font-family="Times,serif" font-size="14.00" fill="#000000">&lt;&lt;Interface&gt;&gt;</text>
<text text-anchor="middle" x="1487.1645" y="-572.9" font-family="Times,serif" font-size="14.00" fill="#000000">UniswapPair</text>
<polyline fill="none" stroke="#000000" points="1376.1196,-564.7 1598.2094,-564.7 "/>
<text text-anchor="middle" x="1487.1645" y="-548.1" font-family="Times,serif" font-size="14.00" fill="#000000"> </text>
<polyline fill="none" stroke="#000000" points="1376.1196,-539.9 1598.2094,-539.9 "/>
<text text-anchor="start" x="1384.1196" y="-523.3" font-family="Times,serif" font-size="14.00" fill="#000000">External:</text>
<text text-anchor="start" x="1384.1196" y="-506.5" font-family="Times,serif" font-size="14.00" fill="#000000"> &#160;&#160;&#160;&#160;mint(to: address): (liquidity: uint)</text>
</g>
<!-- 8 -->
<g id="node9" class="node">
<title>8</title>
<polygon fill="#f2f2f2" stroke="#000000" points="1616.3464,-498.3 1616.3464,-606.3 1851.9826,-606.3 1851.9826,-498.3 1616.3464,-498.3"/>
<text text-anchor="middle" x="1734.1645" y="-589.7" font-family="Times,serif" font-size="14.00" fill="#000000">&lt;&lt;Interface&gt;&gt;</text>
<text text-anchor="middle" x="1734.1645" y="-572.9" font-family="Times,serif" font-size="14.00" fill="#000000">Oracle</text>
<polyline fill="none" stroke="#000000" points="1616.3464,-564.7 1851.9826,-564.7 "/>
<text text-anchor="middle" x="1734.1645" y="-548.1" font-family="Times,serif" font-size="14.00" fill="#000000"> </text>
<polyline fill="none" stroke="#000000" points="1616.3464,-539.9 1851.9826,-539.9 "/>
<text text-anchor="start" x="1624.3464" y="-523.3" font-family="Times,serif" font-size="14.00" fill="#000000">External:</text>
<text text-anchor="start" x="1624.3464" y="-506.5" font-family="Times,serif" font-size="14.00" fill="#000000"> &#160;&#160;&#160;&#160;getPriceUSD(reserve: address): uint</text>
</g>
<!-- 9 -->
<g id="node10" class="node">
<title>9</title>
<polygon fill="#f2f2f2" stroke="#000000" points="1869.7994,-489.9 1869.7994,-614.7 2836.5296,-614.7 2836.5296,-489.9 1869.7994,-489.9"/>
<text text-anchor="middle" x="2353.1645" y="-598.1" font-family="Times,serif" font-size="14.00" fill="#000000">&lt;&lt;Interface&gt;&gt;</text>
<text text-anchor="middle" x="2353.1645" y="-581.3" font-family="Times,serif" font-size="14.00" fill="#000000">UniswapRouter</text>
<polyline fill="none" stroke="#000000" points="1869.7994,-573.1 2836.5296,-573.1 "/>
<text text-anchor="middle" x="2353.1645" y="-556.5" font-family="Times,serif" font-size="14.00" fill="#000000"> </text>
<polyline fill="none" stroke="#000000" points="1869.7994,-548.3 2836.5296,-548.3 "/>
<text text-anchor="start" x="1877.7994" y="-531.7" font-family="Times,serif" font-size="14.00" fill="#000000">External:</text>
<text text-anchor="start" x="1877.7994" y="-514.9" font-family="Times,serif" font-size="14.00" fill="#000000"> &#160;&#160;&#160;&#160;removeLiquidity(tokenA: address, tokenB: address, liquidity: uint, amountAMin: uint, amountBMin: uint, to: address, deadline: uint): (amountA: uint, amountB: uint)</text>
<text text-anchor="start" x="1877.7994" y="-498.1" font-family="Times,serif" font-size="14.00" fill="#000000"> &#160;&#160;&#160;&#160;factory(): address</text>
</g>
<!-- 10 -->
<g id="node11" class="node">
<title>10</title>
<polygon fill="#f2f2f2" stroke="#000000" points="2854.1549,-489.9 2854.1549,-614.7 3228.1741,-614.7 3228.1741,-489.9 2854.1549,-489.9"/>
<text text-anchor="middle" x="3041.1645" y="-598.1" font-family="Times,serif" font-size="14.00" fill="#000000">&lt;&lt;Interface&gt;&gt;</text>
<text text-anchor="middle" x="3041.1645" y="-581.3" font-family="Times,serif" font-size="14.00" fill="#000000">UniswapFactory</text>
<polyline fill="none" stroke="#000000" points="2854.1549,-573.1 3228.1741,-573.1 "/>
<text text-anchor="middle" x="3041.1645" y="-556.5" font-family="Times,serif" font-size="14.00" fill="#000000"> </text>
<polyline fill="none" stroke="#000000" points="2854.1549,-548.3 3228.1741,-548.3 "/>
<text text-anchor="start" x="2862.1549" y="-531.7" font-family="Times,serif" font-size="14.00" fill="#000000">External:</text>
<text text-anchor="start" x="2862.1549" y="-514.9" font-family="Times,serif" font-size="14.00" fill="#000000"> &#160;&#160;&#160;&#160;getPair(tokenA: address, tokenB: address): (pair: address)</text>
<text text-anchor="start" x="2862.1549" y="-498.1" font-family="Times,serif" font-size="14.00" fill="#000000"> &#160;&#160;&#160;&#160;createPair(tokenA: address, tokenB: address): (pair: address)</text>
</g>
<!-- 11 -->
<g id="node12" class="node">
<title>11</title>
<polygon fill="#f2f2f2" stroke="#000000" points="447.1466,-.5 447.1466,-343.7 783.1824,-343.7 783.1824,-.5 447.1466,-.5"/>
<text text-anchor="middle" x="615.1645" y="-327.1" font-family="Times,serif" font-size="14.00" fill="#000000">StableCreditProtocol</text>
<polyline fill="none" stroke="#000000" points="447.1466,-318.9 783.1824,-318.9 "/>
<text text-anchor="start" x="455.1466" y="-302.3" font-family="Times,serif" font-size="14.00" fill="#000000">Public:</text>
<text text-anchor="start" x="455.1466" y="-285.5" font-family="Times,serif" font-size="14.00" fill="#000000"> &#160;&#160;LINK: Oracle</text>
<text text-anchor="start" x="455.1466" y="-268.7" font-family="Times,serif" font-size="14.00" fill="#000000"> &#160;&#160;UNI: UniswapRouter</text>
<text text-anchor="start" x="455.1466" y="-251.9" font-family="Times,serif" font-size="14.00" fill="#000000"> &#160;&#160;MAX: uint</text>
<text text-anchor="start" x="455.1466" y="-235.1" font-family="Times,serif" font-size="14.00" fill="#000000"> &#160;&#160;BASE: uint</text>
<text text-anchor="start" x="455.1466" y="-218.3" font-family="Times,serif" font-size="14.00" fill="#000000"> &#160;&#160;credit: mapping(address=&gt;mapping(address=&gt;uint))</text>
<text text-anchor="start" x="455.1466" y="-201.5" font-family="Times,serif" font-size="14.00" fill="#000000"> &#160;&#160;balances: mapping(address=&gt;mapping(address=&gt;uint))</text>
<polyline fill="none" stroke="#000000" points="447.1466,-193.3 783.1824,-193.3 "/>
<text text-anchor="start" x="455.1466" y="-176.7" font-family="Times,serif" font-size="14.00" fill="#000000">Internal:</text>
<text text-anchor="start" x="455.1466" y="-159.9" font-family="Times,serif" font-size="14.00" fill="#000000"> &#160;&#160;&#160;_deposit(token: address, amount: uint)</text>
<text text-anchor="start" x="455.1466" y="-143.1" font-family="Times,serif" font-size="14.00" fill="#000000"> &#160;&#160;&#160;_withdraw(token: address, amount: uint)</text>
<text text-anchor="start" x="455.1466" y="-126.3" font-family="Times,serif" font-size="14.00" fill="#000000">External:</text>
<text text-anchor="start" x="455.1466" y="-109.5" font-family="Times,serif" font-size="14.00" fill="#000000"> &#160;&#160;&#160;depositAll(token: address)</text>
<text text-anchor="start" x="455.1466" y="-92.7" font-family="Times,serif" font-size="14.00" fill="#000000"> &#160;&#160;&#160;withdrawAll(token: address)</text>
<text text-anchor="start" x="455.1466" y="-75.9" font-family="Times,serif" font-size="14.00" fill="#000000"> &#160;&#160;&#160;withdraw(token: address, amount: uint)</text>
<text text-anchor="start" x="455.1466" y="-59.1" font-family="Times,serif" font-size="14.00" fill="#000000">Public:</text>
<text text-anchor="start" x="455.1466" y="-42.3" font-family="Times,serif" font-size="14.00" fill="#000000"> &#160;&#160;&#160;utilization(token: address): uint</text>
<text text-anchor="start" x="455.1466" y="-25.5" font-family="Times,serif" font-size="14.00" fill="#000000"> &#160;&#160;&#160;constructor()</text>
<text text-anchor="start" x="455.1466" y="-8.7" font-family="Times,serif" font-size="14.00" fill="#000000"> &#160;&#160;&#160;deposit(token: address, amount: uint)</text>
</g>
<!-- 11&#45;&gt;6 -->
<g id="edge10" class="edge">
<title>11&#45;&gt;6</title>
<path fill="none" stroke="#000000" stroke-dasharray="5,2" d="M783.4602,-315.5664C839.3314,-363.1947 900.0854,-414.9855 950.482,-457.9469"/>
<polygon fill="#000000" stroke="#000000" points="948.2786,-460.6677 958.1594,-464.4916 952.8198,-455.3406 948.2786,-460.6677"/>
</g>
<!-- 11&#45;&gt;0 -->
<g id="edge16" class="edge">
<title>11&#45;&gt;0</title>
<path fill="none" stroke="#000000" stroke-dasharray="5,2" d="M447.1179,-309.1955C428.3559,-331.1189 411.572,-354.9664 399.1645,-380.2 331.2531,-518.314 405.8713,-577.129 361.1645,-724.4 358.4369,-733.3853 355.1991,-742.4626 351.611,-751.4832"/>
<polygon fill="#000000" stroke="#000000" points="348.3225,-750.2773 347.7517,-760.8568 354.7953,-752.9424 348.3225,-750.2773"/>
</g>
<!-- 11&#45;&gt;2 -->
<g id="edge8" class="edge">
<title>11&#45;&gt;2</title>
<path fill="none" stroke="#000000" d="M615.1645,-343.8466C615.1645,-346.039 615.1645,-348.2346 615.1645,-350.4324"/>
<polygon fill="none" stroke="#000000" points="604.6646,-350.5512 615.1645,-380.5512 625.6646,-350.5512 604.6646,-350.5512"/>
</g>
<!-- 11&#45;&gt;3 -->
<g id="edge9" class="edge">
<title>11&#45;&gt;3</title>
<path fill="none" stroke="#000000" d="M446.9673,-311.1165C419.7981,-334.0168 392.09,-357.6407 366.1645,-380.2 345.6996,-398.0077 324.2088,-417.0919 303.3408,-435.8352"/>
<polygon fill="none" stroke="#000000" points="296.2672,-428.0752 281.0192,-455.9634 310.3304,-443.671 296.2672,-428.0752"/>
</g>
<!-- 11&#45;&gt;4 -->
<g id="edge12" class="edge">
<title>11&#45;&gt;4</title>
<path fill="none" stroke="#000000" stroke-dasharray="5,2" d="M783.4043,-200.5444C963.1507,-234.7668 1230.4819,-298.0266 1291.1645,-380.2 1336.6025,-441.73 1331.0068,-659.1072 1291.1645,-724.4 1272.9415,-754.2634 1250.756,-741.7387 1221.1645,-760.4 1211.3628,-766.5812 1201.4122,-773.2063 1191.5161,-780.0561"/>
<polygon fill="#000000" stroke="#000000" points="1189.4094,-777.2584 1183.2207,-785.8579 1193.4213,-782.9947 1189.4094,-777.2584"/>
</g>
<!-- 11&#45;&gt;5 -->
<g id="edge11" class="edge">
<title>11&#45;&gt;5</title>
<path fill="none" stroke="#000000" stroke-dasharray="5,2" d="M783.4417,-198.7279C970.4885,-232.0898 1255.0379,-295.3461 1321.1645,-380.2 1372.8594,-446.5351 1358.0104,-697.8202 1347.5449,-817.7054"/>
<polygon fill="#000000" stroke="#000000" points="1344.0428,-817.5743 1346.6428,-827.8451 1351.0153,-818.1947 1344.0428,-817.5743"/>
</g>
<!-- 11&#45;&gt;7 -->
<g id="edge17" class="edge">
<title>11&#45;&gt;7</title>
<path fill="none" stroke="#000000" stroke-dasharray="5,2" d="M783.3413,-186.9366C944.2538,-208.0963 1187.6107,-258.9382 1362.1645,-380.2 1402.0339,-407.8971 1433.9186,-452.5313 1455.5056,-489.4038"/>
<polygon fill="#000000" stroke="#000000" points="1452.487,-491.1756 1460.4977,-498.1095 1458.5594,-487.6935 1452.487,-491.1756"/>
</g>
<!-- 11&#45;&gt;8 -->
<g id="edge13" class="edge">
<title>11&#45;&gt;8</title>
<path fill="none" stroke="#000000" d="M783.4034,-192.6874C1029.4066,-225.2263 1472.6587,-293.8117 1607.1645,-380.2 1648.5273,-406.7659 1681.0733,-451.88 1702.8598,-489.254"/>
<polygon fill="#000000" stroke="#000000" points="1699.898,-491.1257 1707.8911,-498.0799 1705.9793,-487.6589 1699.898,-491.1257"/>
</g>
<!-- 11&#45;&gt;9 -->
<g id="edge14" class="edge">
<title>11&#45;&gt;9</title>
<path fill="none" stroke="#000000" d="M783.329,-190.9137C1024.5059,-219.9811 1481.4211,-282.8349 1861.1645,-380.2 1971.6518,-408.5286 2092.6119,-450.6826 2186.9469,-486.1799"/>
<polygon fill="#000000" stroke="#000000" points="2185.9788,-489.5555 2196.5706,-489.8129 2188.4511,-483.0066 2185.9788,-489.5555"/>
</g>
<!-- 11&#45;&gt;10 -->
<g id="edge15" class="edge">
<title>11&#45;&gt;10</title>
<path fill="none" stroke="#000000" stroke-dasharray="5,2" d="M783.4238,-174.4592C1236.7259,-182.9088 2474.2249,-220.3851 2845.1645,-380.2 2897.7994,-402.8771 2946.2961,-445.1958 2981.8815,-482.1925"/>
<polygon fill="#000000" stroke="#000000" points="2979.4032,-484.6655 2988.8239,-489.5135 2984.4826,-479.8489 2979.4032,-484.6655"/>
</g>
</g>
</svg>
