<?xml version="1.0" encoding="UTF-8" standalone="no"?>
<!DOCTYPE svg PUBLIC "-//W3C//DTD SVG 1.1//EN"
 "http://www.w3.org/Graphics/SVG/1.1/DTD/svg11.dtd">
<!-- Generated by graphviz version 2.40.1 (20161225.0304)
 -->
<!-- Title: UmlClassDiagram Pages: 1 -->
<svg width="3236pt" height="1197pt"
 viewBox="0.00 0.00 3236.17 1196.60" xmlns="http://www.w3.org/2000/svg" xmlns:xlink="http://www.w3.org/1999/xlink">
<g id="graph0" class="graph" transform="scale(1 1) rotate(0) translate(4 1192.6)">
<title>UmlClassDiagram</title>
<polygon fill="#ffffff" stroke="transparent" points="-4,4 -4,-1192.6 3232.1741,-1192.6 3232.1741,4 -4,4"/>
<!-- 6 -->
<g id="node1" class="node">
<title>6</title>
<polygon fill="#f2f2f2" stroke="#000000" points="840.508,-649.5 840.508,-824.7 1281.821,-824.7 1281.821,-649.5 840.508,-649.5"/>
<text text-anchor="middle" x="1061.1645" y="-808.1" font-family="Times,serif" font-size="14.00" fill="#000000">&lt;&lt;Library&gt;&gt;</text>
<text text-anchor="middle" x="1061.1645" y="-791.3" font-family="Times,serif" font-size="14.00" fill="#000000">SafeERC20</text>
<polyline fill="none" stroke="#000000" points="840.508,-783.1 1281.821,-783.1 "/>
<text text-anchor="middle" x="1061.1645" y="-766.5" font-family="Times,serif" font-size="14.00" fill="#000000"> </text>
<polyline fill="none" stroke="#000000" points="840.508,-758.3 1281.821,-758.3 "/>
<text text-anchor="start" x="848.508" y="-741.7" font-family="Times,serif" font-size="14.00" fill="#000000">Private:</text>
<text text-anchor="start" x="848.508" y="-724.9" font-family="Times,serif" font-size="14.00" fill="#000000"> &#160;&#160;&#160;callOptionalReturn(token: IERC20, data: bytes)</text>
<text text-anchor="start" x="848.508" y="-708.1" font-family="Times,serif" font-size="14.00" fill="#000000">Internal:</text>
<text text-anchor="start" x="848.508" y="-691.3" font-family="Times,serif" font-size="14.00" fill="#000000"> &#160;&#160;&#160;safeTransfer(token: IERC20, to: address, value: uint)</text>
<text text-anchor="start" x="848.508" y="-674.5" font-family="Times,serif" font-size="14.00" fill="#000000"> &#160;&#160;&#160;safeTransferFrom(token: IERC20, from: address, to: address, value: uint)</text>
<text text-anchor="start" x="848.508" y="-657.7" font-family="Times,serif" font-size="14.00" fill="#000000"> &#160;&#160;&#160;safeApprove(token: IERC20, spender: address, value: uint)</text>
</g>
<!-- 0 -->
<g id="node2" class="node">
<title>0</title>
<polygon fill="#f2f2f2" stroke="#000000" points="70.3646,-945.7 70.3646,-1188.1 487.9644,-1188.1 487.9644,-945.7 70.3646,-945.7"/>
<text text-anchor="middle" x="279.1645" y="-1171.5" font-family="Times,serif" font-size="14.00" fill="#000000">&lt;&lt;Interface&gt;&gt;</text>
<text text-anchor="middle" x="279.1645" y="-1154.7" font-family="Times,serif" font-size="14.00" fill="#000000">IERC20</text>
<polyline fill="none" stroke="#000000" points="70.3646,-1146.5 487.9644,-1146.5 "/>
<text text-anchor="middle" x="279.1645" y="-1129.9" font-family="Times,serif" font-size="14.00" fill="#000000"> </text>
<polyline fill="none" stroke="#000000" points="70.3646,-1121.7 487.9644,-1121.7 "/>
<text text-anchor="start" x="78.3646" y="-1105.1" font-family="Times,serif" font-size="14.00" fill="#000000">External:</text>
<text text-anchor="start" x="78.3646" y="-1088.3" font-family="Times,serif" font-size="14.00" fill="#000000"> &#160;&#160;&#160;&#160;totalSupply(): uint</text>
<text text-anchor="start" x="78.3646" y="-1071.5" font-family="Times,serif" font-size="14.00" fill="#000000"> &#160;&#160;&#160;&#160;balanceOf(account: address): uint</text>
<text text-anchor="start" x="78.3646" y="-1054.7" font-family="Times,serif" font-size="14.00" fill="#000000"> &#160;&#160;&#160;&#160;transfer(recipient: address, amount: uint): bool</text>
<text text-anchor="start" x="78.3646" y="-1037.9" font-family="Times,serif" font-size="14.00" fill="#000000"> &#160;&#160;&#160;&#160;allowance(owner: address, spender: address): uint</text>
<text text-anchor="start" x="78.3646" y="-1021.1" font-family="Times,serif" font-size="14.00" fill="#000000"> &#160;&#160;&#160;&#160;approve(spender: address, amount: uint): bool</text>
<text text-anchor="start" x="78.3646" y="-1004.3" font-family="Times,serif" font-size="14.00" fill="#000000"> &#160;&#160;&#160;&#160;transferFrom(sender: address, recipient: address, amount: uint): bool</text>
<text text-anchor="start" x="78.3646" y="-987.5" font-family="Times,serif" font-size="14.00" fill="#000000">Public:</text>
<text text-anchor="start" x="78.3646" y="-970.7" font-family="Times,serif" font-size="14.00" fill="#000000"> &#160;&#160;&#160;&lt;&lt;event&gt;&gt; Transfer(from: address, to: address, value: uint)</text>
<text text-anchor="start" x="78.3646" y="-953.9" font-family="Times,serif" font-size="14.00" fill="#000000"> &#160;&#160;&#160;&lt;&lt;event&gt;&gt; Approval(owner: address, spender: address, value: uint)</text>
</g>
<!-- 6&#45;&gt;0 -->
<g id="edge3" class="edge">
<title>6&#45;&gt;0</title>
<path fill="none" stroke="#000000" stroke-dasharray="5,2" d="M968.0294,-824.7293C928.6968,-856.7003 880.5891,-889.7521 831.1645,-909.2 695.2141,-962.6946 641.7392,-902.5941 497.7831,-945.2288"/>
<polygon fill="#000000" stroke="#000000" points="496.6963,-941.9012 488.1683,-948.188 498.7554,-948.5915 496.6963,-941.9012"/>
</g>
<!-- 4 -->
<g id="node5" class="node">
<title>4</title>
<polygon fill="#f2f2f2" stroke="#000000" points="916.6911,-970.9 916.6911,-1162.9 1205.6379,-1162.9 1205.6379,-970.9 916.6911,-970.9"/>
<text text-anchor="middle" x="1061.1645" y="-1146.3" font-family="Times,serif" font-size="14.00" fill="#000000">&lt;&lt;Library&gt;&gt;</text>
<text text-anchor="middle" x="1061.1645" y="-1129.5" font-family="Times,serif" font-size="14.00" fill="#000000">SafeMath</text>
<polyline fill="none" stroke="#000000" points="916.6911,-1121.3 1205.6379,-1121.3 "/>
<text text-anchor="middle" x="1061.1645" y="-1104.7" font-family="Times,serif" font-size="14.00" fill="#000000"> </text>
<polyline fill="none" stroke="#000000" points="916.6911,-1096.5 1205.6379,-1096.5 "/>
<text text-anchor="start" x="924.6911" y="-1079.9" font-family="Times,serif" font-size="14.00" fill="#000000">Internal:</text>
<text text-anchor="start" x="924.6911" y="-1063.1" font-family="Times,serif" font-size="14.00" fill="#000000"> &#160;&#160;&#160;add(a: uint, b: uint): uint</text>
<text text-anchor="start" x="924.6911" y="-1046.3" font-family="Times,serif" font-size="14.00" fill="#000000"> &#160;&#160;&#160;sub(a: uint, b: uint): uint</text>
<text text-anchor="start" x="924.6911" y="-1029.5" font-family="Times,serif" font-size="14.00" fill="#000000"> &#160;&#160;&#160;sub(a: uint, b: uint, errorMessage: string): uint</text>
<text text-anchor="start" x="924.6911" y="-1012.7" font-family="Times,serif" font-size="14.00" fill="#000000"> &#160;&#160;&#160;mul(a: uint, b: uint): uint</text>
<text text-anchor="start" x="924.6911" y="-995.9" font-family="Times,serif" font-size="14.00" fill="#000000"> &#160;&#160;&#160;div(a: uint, b: uint): uint</text>
<text text-anchor="start" x="924.6911" y="-979.1" font-family="Times,serif" font-size="14.00" fill="#000000"> &#160;&#160;&#160;div(a: uint, b: uint, errorMessage: string): uint</text>
</g>
<!-- 6&#45;&gt;4 -->
<g id="edge1" class="edge">
<title>6&#45;&gt;4</title>
<path fill="none" stroke="#000000" stroke-dasharray="5,2" d="M1061.1645,-825.0471C1061.1645,-866.7371 1061.1645,-916.8864 1061.1645,-960.684"/>
<polygon fill="#000000" stroke="#000000" points="1057.6646,-960.7962 1061.1645,-970.7962 1064.6646,-960.7963 1057.6646,-960.7962"/>
</g>
<!-- 5 -->
<g id="node6" class="node">
<title>5</title>
<polygon fill="#f2f2f2" stroke="#000000" points="1230.1399,-1012.9 1230.1399,-1120.9 1452.1891,-1120.9 1452.1891,-1012.9 1230.1399,-1012.9"/>
<text text-anchor="middle" x="1341.1645" y="-1104.3" font-family="Times,serif" font-size="14.00" fill="#000000">&lt;&lt;Library&gt;&gt;</text>
<text text-anchor="middle" x="1341.1645" y="-1087.5" font-family="Times,serif" font-size="14.00" fill="#000000">Address</text>
<polyline fill="none" stroke="#000000" points="1230.1399,-1079.3 1452.1891,-1079.3 "/>
<text text-anchor="middle" x="1341.1645" y="-1062.7" font-family="Times,serif" font-size="14.00" fill="#000000"> </text>
<polyline fill="none" stroke="#000000" points="1230.1399,-1054.5 1452.1891,-1054.5 "/>
<text text-anchor="start" x="1238.1399" y="-1037.9" font-family="Times,serif" font-size="14.00" fill="#000000">Internal:</text>
<text text-anchor="start" x="1238.1399" y="-1021.1" font-family="Times,serif" font-size="14.00" fill="#000000"> &#160;&#160;&#160;isContract(account: address): bool</text>
</g>
<!-- 6&#45;&gt;5 -->
<g id="edge2" class="edge">
<title>6&#45;&gt;5</title>
<path fill="none" stroke="#000000" stroke-dasharray="5,2" d="M1135.8315,-825.0471C1184.0628,-881.8566 1245.6297,-954.3737 1288.7157,-1005.1228"/>
<polygon fill="#000000" stroke="#000000" points="1286.0605,-1007.4033 1295.2007,-1012.7613 1291.3968,-1002.8729 1286.0605,-1007.4033"/>
</g>
<!-- 2 -->
<g id="node3" class="node">
<title>2</title>
<polygon fill="#f2f2f2" stroke="#000000" points="408.1146,-565.5 408.1146,-908.7 822.2144,-908.7 822.2144,-565.5 408.1146,-565.5"/>
<text text-anchor="middle" x="615.1645" y="-892.1" font-family="Times,serif" font-size="14.00" fill="#000000">ERC20</text>
<polyline fill="none" stroke="#000000" points="408.1146,-883.9 822.2144,-883.9 "/>
<text text-anchor="start" x="416.1146" y="-867.3" font-family="Times,serif" font-size="14.00" fill="#000000">Private:</text>
<text text-anchor="start" x="416.1146" y="-850.5" font-family="Times,serif" font-size="14.00" fill="#000000"> &#160;&#160;_balances: mapping(address=&gt;uint)</text>
<text text-anchor="start" x="416.1146" y="-833.7" font-family="Times,serif" font-size="14.00" fill="#000000"> &#160;&#160;_allowances: mapping(address=&gt;mapping(address=&gt;uint))</text>
<text text-anchor="start" x="416.1146" y="-816.9" font-family="Times,serif" font-size="14.00" fill="#000000"> &#160;&#160;_totalSupply: uint</text>
<polyline fill="none" stroke="#000000" points="408.1146,-808.7 822.2144,-808.7 "/>
<text text-anchor="start" x="416.1146" y="-792.1" font-family="Times,serif" font-size="14.00" fill="#000000">Internal:</text>
<text text-anchor="start" x="416.1146" y="-775.3" font-family="Times,serif" font-size="14.00" fill="#000000"> &#160;&#160;&#160;_transfer(sender: address, recipient: address, amount: uint)</text>
<text text-anchor="start" x="416.1146" y="-758.5" font-family="Times,serif" font-size="14.00" fill="#000000"> &#160;&#160;&#160;_mint(account: address, amount: uint)</text>
<text text-anchor="start" x="416.1146" y="-741.7" font-family="Times,serif" font-size="14.00" fill="#000000"> &#160;&#160;&#160;_burn(account: address, amount: uint)</text>
<text text-anchor="start" x="416.1146" y="-724.9" font-family="Times,serif" font-size="14.00" fill="#000000"> &#160;&#160;&#160;_approve(owner: address, spender: address, amount: uint)</text>
<text text-anchor="start" x="416.1146" y="-708.1" font-family="Times,serif" font-size="14.00" fill="#000000">Public:</text>
<text text-anchor="start" x="416.1146" y="-691.3" font-family="Times,serif" font-size="14.00" fill="#000000"> &#160;&#160;&#160;totalSupply(): uint</text>
<text text-anchor="start" x="416.1146" y="-674.5" font-family="Times,serif" font-size="14.00" fill="#000000"> &#160;&#160;&#160;balanceOf(account: address): uint</text>
<text text-anchor="start" x="416.1146" y="-657.7" font-family="Times,serif" font-size="14.00" fill="#000000"> &#160;&#160;&#160;transfer(recipient: address, amount: uint): bool</text>
<text text-anchor="start" x="416.1146" y="-640.9" font-family="Times,serif" font-size="14.00" fill="#000000"> &#160;&#160;&#160;allowance(owner: address, spender: address): uint</text>
<text text-anchor="start" x="416.1146" y="-624.1" font-family="Times,serif" font-size="14.00" fill="#000000"> &#160;&#160;&#160;approve(spender: address, amount: uint): bool</text>
<text text-anchor="start" x="416.1146" y="-607.3" font-family="Times,serif" font-size="14.00" fill="#000000"> &#160;&#160;&#160;transferFrom(sender: address, recipient: address, amount: uint): bool</text>
<text text-anchor="start" x="416.1146" y="-590.5" font-family="Times,serif" font-size="14.00" fill="#000000"> &#160;&#160;&#160;increaseAllowance(spender: address, addedValue: uint): bool</text>
<text text-anchor="start" x="416.1146" y="-573.7" font-family="Times,serif" font-size="14.00" fill="#000000"> &#160;&#160;&#160;decreaseAllowance(spender: address, subtractedValue: uint): bool</text>
</g>
<!-- 2&#45;&gt;0 -->
<g id="edge5" class="edge">
<title>2&#45;&gt;0</title>
<path fill="none" stroke="#000000" stroke-dasharray="5,2" d="M440.2756,-908.7618C434.9612,-913.9781 429.656,-919.1854 424.3813,-924.3628"/>
<polygon fill="none" stroke="#000000" points="416.9781,-916.9165 402.9234,-945.4247 431.6884,-931.9034 416.9781,-916.9165"/>
</g>
<!-- 2&#45;&gt;4 -->
<g id="edge6" class="edge">
<title>2&#45;&gt;4</title>
<path fill="none" stroke="#000000" stroke-dasharray="5,2" d="M822.4468,-902.7201C825.3664,-904.9004 828.2735,-907.0614 831.1645,-909.2 856.1012,-927.6464 882.9614,-946.7368 909.2207,-964.9935"/>
<polygon fill="#000000" stroke="#000000" points="907.5103,-968.0666 917.7221,-970.8898 911.4997,-962.3147 907.5103,-968.0666"/>
</g>
<!-- 1 -->
<g id="node7" class="node">
<title>1</title>
<polygon fill="#f2f2f2" stroke="#000000" points="506.0922,-1004.5 506.0922,-1129.3 724.2368,-1129.3 724.2368,-1004.5 506.0922,-1004.5"/>
<text text-anchor="middle" x="615.1645" y="-1112.7" font-family="Times,serif" font-size="14.00" fill="#000000">Context</text>
<polyline fill="none" stroke="#000000" points="506.0922,-1104.5 724.2368,-1104.5 "/>
<text text-anchor="middle" x="615.1645" y="-1087.9" font-family="Times,serif" font-size="14.00" fill="#000000"> </text>
<polyline fill="none" stroke="#000000" points="506.0922,-1079.7 724.2368,-1079.7 "/>
<text text-anchor="start" x="514.0922" y="-1063.1" font-family="Times,serif" font-size="14.00" fill="#000000">Internal:</text>
<text text-anchor="start" x="514.0922" y="-1046.3" font-family="Times,serif" font-size="14.00" fill="#000000"> &#160;&#160;&#160;_msgSender(): (payable: address)</text>
<text text-anchor="start" x="514.0922" y="-1029.5" font-family="Times,serif" font-size="14.00" fill="#000000">Public:</text>
<text text-anchor="start" x="514.0922" y="-1012.7" font-family="Times,serif" font-size="14.00" fill="#000000"> &#160;&#160;&#160;constructor()</text>
</g>
<!-- 2&#45;&gt;1 -->
<g id="edge4" class="edge">
<title>2&#45;&gt;1</title>
<path fill="none" stroke="#000000" d="M615.1645,-908.7618C615.1645,-931.3898 615.1645,-953.8477 615.1645,-974.4274"/>
<polygon fill="none" stroke="#000000" points="604.6646,-974.4839 615.1645,-1004.484 625.6646,-974.484 604.6646,-974.4839"/>
</g>
<!-- 3 -->
<g id="node4" class="node">
<title>3</title>
<polygon fill="#f2f2f2" stroke="#000000" points="0,-641.1 0,-833.1 352.329,-833.1 352.329,-641.1 0,-641.1"/>
<text text-anchor="middle" x="176.1645" y="-816.5" font-family="Times,serif" font-size="14.00" fill="#000000">ERC20Detailed</text>
<polyline fill="none" stroke="#000000" points="0,-808.3 352.329,-808.3 "/>
<text text-anchor="start" x="8" y="-791.7" font-family="Times,serif" font-size="14.00" fill="#000000">Private:</text>
<text text-anchor="start" x="8" y="-774.9" font-family="Times,serif" font-size="14.00" fill="#000000"> &#160;&#160;_name: string</text>
<text text-anchor="start" x="8" y="-758.1" font-family="Times,serif" font-size="14.00" fill="#000000"> &#160;&#160;_symbol: string</text>
<text text-anchor="start" x="8" y="-741.3" font-family="Times,serif" font-size="14.00" fill="#000000"> &#160;&#160;_decimals: uint8</text>
<polyline fill="none" stroke="#000000" points="0,-733.1 352.329,-733.1 "/>
<text text-anchor="start" x="8" y="-716.5" font-family="Times,serif" font-size="14.00" fill="#000000">Public:</text>
<text text-anchor="start" x="8" y="-699.7" font-family="Times,serif" font-size="14.00" fill="#000000"> &#160;&#160;&#160;constructor(name: string, symbol: string, decimals: uint8)</text>
<text text-anchor="start" x="8" y="-682.9" font-family="Times,serif" font-size="14.00" fill="#000000"> &#160;&#160;&#160;name(): string</text>
<text text-anchor="start" x="8" y="-666.1" font-family="Times,serif" font-size="14.00" fill="#000000"> &#160;&#160;&#160;symbol(): string</text>
<text text-anchor="start" x="8" y="-649.3" font-family="Times,serif" font-size="14.00" fill="#000000"> &#160;&#160;&#160;decimals(): uint8</text>
</g>
<!-- 3&#45;&gt;0 -->
<g id="edge7" class="edge">
<title>3&#45;&gt;0</title>
<path fill="none" stroke="#000000" stroke-dasharray="5,2" d="M206.2333,-833.3784C214.407,-859.5502 223.4573,-888.5289 232.3221,-916.9133"/>
<polygon fill="none" stroke="#000000" points="222.3002,-920.046 241.2662,-945.5518 242.3454,-913.7856 222.3002,-920.046"/>
</g>
<!-- 7 -->
<g id="node8" class="node">
<title>7</title>
<polygon fill="#f2f2f2" stroke="#000000" points="1376.1196,-683.1 1376.1196,-791.1 1598.2094,-791.1 1598.2094,-683.1 1376.1196,-683.1"/>
<text text-anchor="middle" x="1487.1645" y="-774.5" font-family="Times,serif" font-size="14.00" fill="#000000">&lt;&lt;Interface&gt;&gt;</text>
<text text-anchor="middle" x="1487.1645" y="-757.7" font-family="Times,serif" font-size="14.00" fill="#000000">UniswapPair</text>
<polyline fill="none" stroke="#000000" points="1376.1196,-749.5 1598.2094,-749.5 "/>
<text text-anchor="middle" x="1487.1645" y="-732.9" font-family="Times,serif" font-size="14.00" fill="#000000"> </text>
<polyline fill="none" stroke="#000000" points="1376.1196,-724.7 1598.2094,-724.7 "/>
<text text-anchor="start" x="1384.1196" y="-708.1" font-family="Times,serif" font-size="14.00" fill="#000000">External:</text>
<text text-anchor="start" x="1384.1196" y="-691.3" font-family="Times,serif" font-size="14.00" fill="#000000"> &#160;&#160;&#160;&#160;mint(to: address): (liquidity: uint)</text>
</g>
<!-- 8 -->
<g id="node9" class="node">
<title>8</title>
<polygon fill="#f2f2f2" stroke="#000000" points="1616.3464,-683.1 1616.3464,-791.1 1851.9826,-791.1 1851.9826,-683.1 1616.3464,-683.1"/>
<text text-anchor="middle" x="1734.1645" y="-774.5" font-family="Times,serif" font-size="14.00" fill="#000000">&lt;&lt;Interface&gt;&gt;</text>
<text text-anchor="middle" x="1734.1645" y="-757.7" font-family="Times,serif" font-size="14.00" fill="#000000">Oracle</text>
<polyline fill="none" stroke="#000000" points="1616.3464,-749.5 1851.9826,-749.5 "/>
<text text-anchor="middle" x="1734.1645" y="-732.9" font-family="Times,serif" font-size="14.00" fill="#000000"> </text>
<polyline fill="none" stroke="#000000" points="1616.3464,-724.7 1851.9826,-724.7 "/>
<text text-anchor="start" x="1624.3464" y="-708.1" font-family="Times,serif" font-size="14.00" fill="#000000">External:</text>
<text text-anchor="start" x="1624.3464" y="-691.3" font-family="Times,serif" font-size="14.00" fill="#000000"> &#160;&#160;&#160;&#160;getPriceUSD(reserve: address): uint</text>
</g>
<!-- 9 -->
<g id="node10" class="node">
<title>9</title>
<polygon fill="#f2f2f2" stroke="#000000" points="1869.7994,-641.1 1869.7994,-833.1 2836.5296,-833.1 2836.5296,-641.1 1869.7994,-641.1"/>
<text text-anchor="middle" x="2353.1645" y="-816.5" font-family="Times,serif" font-size="14.00" fill="#000000">&lt;&lt;Interface&gt;&gt;</text>
<text text-anchor="middle" x="2353.1645" y="-799.7" font-family="Times,serif" font-size="14.00" fill="#000000">UniswapRouter</text>
<polyline fill="none" stroke="#000000" points="1869.7994,-791.5 2836.5296,-791.5 "/>
<text text-anchor="middle" x="2353.1645" y="-774.9" font-family="Times,serif" font-size="14.00" fill="#000000"> </text>
<polyline fill="none" stroke="#000000" points="1869.7994,-766.7 2836.5296,-766.7 "/>
<text text-anchor="start" x="1877.7994" y="-750.1" font-family="Times,serif" font-size="14.00" fill="#000000">External:</text>
<text text-anchor="start" x="1877.7994" y="-733.3" font-family="Times,serif" font-size="14.00" fill="#000000"> &#160;&#160;&#160;&#160;removeLiquidity(tokenA: address, tokenB: address, liquidity: uint, amountAMin: uint, amountBMin: uint, to: address, deadline: uint): (amountA: uint, amountB: uint)</text>
<text text-anchor="start" x="1877.7994" y="-716.5" font-family="Times,serif" font-size="14.00" fill="#000000"> &#160;&#160;&#160;&#160;swapExactTokensForTokens(amountIn: uint, amountOutMin: uint, path: address[], to: address, deadline: uint): (amounts: uint[])</text>
<text text-anchor="start" x="1877.7994" y="-699.7" font-family="Times,serif" font-size="14.00" fill="#000000"> &#160;&#160;&#160;&#160;swapTokensForExactTokens(amountOut: uint, amountInMax: uint, path: address[], to: address, deadline: uint): (amounts: uint[])</text>
<text text-anchor="start" x="1877.7994" y="-682.9" font-family="Times,serif" font-size="14.00" fill="#000000"> &#160;&#160;&#160;&#160;getAmountsOut(amountIn: uint, path: address[]): (amounts: uint[])</text>
<text text-anchor="start" x="1877.7994" y="-666.1" font-family="Times,serif" font-size="14.00" fill="#000000"> &#160;&#160;&#160;&#160;getAmountsIn(amountOut: uint, path: address[]): (amounts: uint[])</text>
<text text-anchor="start" x="1877.7994" y="-649.3" font-family="Times,serif" font-size="14.00" fill="#000000"> &#160;&#160;&#160;&#160;factory(): address</text>
</g>
<!-- 10 -->
<g id="node11" class="node">
<title>10</title>
<polygon fill="#f2f2f2" stroke="#000000" points="2854.1549,-674.7 2854.1549,-799.5 3228.1741,-799.5 3228.1741,-674.7 2854.1549,-674.7"/>
<text text-anchor="middle" x="3041.1645" y="-782.9" font-family="Times,serif" font-size="14.00" fill="#000000">&lt;&lt;Interface&gt;&gt;</text>
<text text-anchor="middle" x="3041.1645" y="-766.1" font-family="Times,serif" font-size="14.00" fill="#000000">UniswapFactory</text>
<polyline fill="none" stroke="#000000" points="2854.1549,-757.9 3228.1741,-757.9 "/>
<text text-anchor="middle" x="3041.1645" y="-741.3" font-family="Times,serif" font-size="14.00" fill="#000000"> </text>
<polyline fill="none" stroke="#000000" points="2854.1549,-733.1 3228.1741,-733.1 "/>
<text text-anchor="start" x="2862.1549" y="-716.5" font-family="Times,serif" font-size="14.00" fill="#000000">External:</text>
<text text-anchor="start" x="2862.1549" y="-699.7" font-family="Times,serif" font-size="14.00" fill="#000000"> &#160;&#160;&#160;&#160;getPair(tokenA: address, tokenB: address): (pair: address)</text>
<text text-anchor="start" x="2862.1549" y="-682.9" font-family="Times,serif" font-size="14.00" fill="#000000"> &#160;&#160;&#160;&#160;createPair(tokenA: address, tokenB: address): (pair: address)</text>
</g>
<!-- 11 -->
<g id="node12" class="node">
<title>11</title>
<polygon fill="#f2f2f2" stroke="#000000" points="296.6795,-.5 296.6795,-528.5 933.6495,-528.5 933.6495,-.5 296.6795,-.5"/>
<text text-anchor="middle" x="615.1645" y="-511.9" font-family="Times,serif" font-size="14.00" fill="#000000">StableCreditProtocol</text>
<polyline fill="none" stroke="#000000" points="296.6795,-503.7 933.6495,-503.7 "/>
<text text-anchor="start" x="304.6795" y="-487.1" font-family="Times,serif" font-size="14.00" fill="#000000">Public:</text>
<text text-anchor="start" x="304.6795" y="-470.3" font-family="Times,serif" font-size="14.00" fill="#000000"> &#160;&#160;LINK: Oracle</text>
<text text-anchor="start" x="304.6795" y="-453.5" font-family="Times,serif" font-size="14.00" fill="#000000"> &#160;&#160;UNI: UniswapRouter</text>
<text text-anchor="start" x="304.6795" y="-436.7" font-family="Times,serif" font-size="14.00" fill="#000000"> &#160;&#160;MAX: uint</text>
<text text-anchor="start" x="304.6795" y="-419.9" font-family="Times,serif" font-size="14.00" fill="#000000"> &#160;&#160;BASE: uint</text>
<text text-anchor="start" x="304.6795" y="-403.1" font-family="Times,serif" font-size="14.00" fill="#000000"> &#160;&#160;credit: mapping(address=&gt;mapping(address=&gt;uint))</text>
<text text-anchor="start" x="304.6795" y="-386.3" font-family="Times,serif" font-size="14.00" fill="#000000"> &#160;&#160;balances: mapping(address=&gt;mapping(address=&gt;uint))</text>
<text text-anchor="start" x="304.6795" y="-369.5" font-family="Times,serif" font-size="14.00" fill="#000000"> &#160;&#160;markets: mapping(address=&gt;address[])</text>
<polyline fill="none" stroke="#000000" points="296.6795,-361.3 933.6495,-361.3 "/>
<text text-anchor="start" x="304.6795" y="-344.7" font-family="Times,serif" font-size="14.00" fill="#000000">Internal:</text>
<text text-anchor="start" x="304.6795" y="-327.9" font-family="Times,serif" font-size="14.00" fill="#000000"> &#160;&#160;&#160;_deposit(token: address, amount: uint)</text>
<text text-anchor="start" x="304.6795" y="-311.1" font-family="Times,serif" font-size="14.00" fill="#000000"> &#160;&#160;&#160;_withdraw(token: address, amount: uint)</text>
<text text-anchor="start" x="304.6795" y="-294.3" font-family="Times,serif" font-size="14.00" fill="#000000"> &#160;&#160;&#160;_utilization(token: address, amount: uint): uint</text>
<text text-anchor="start" x="304.6795" y="-277.5" font-family="Times,serif" font-size="14.00" fill="#000000">External:</text>
<text text-anchor="start" x="304.6795" y="-260.7" font-family="Times,serif" font-size="14.00" fill="#000000"> &#160;&#160;&#160;borrowExactOut(token: address, inMax: uint, outExact: uint)</text>
<text text-anchor="start" x="304.6795" y="-243.9" font-family="Times,serif" font-size="14.00" fill="#000000"> &#160;&#160;&#160;borrowExactIn(token: address, inExact: uint, outMin: uint)</text>
<text text-anchor="start" x="304.6795" y="-227.1" font-family="Times,serif" font-size="14.00" fill="#000000"> &#160;&#160;&#160;repayExactOut(token: address, inMax: uint, outExact: uint)</text>
<text text-anchor="start" x="304.6795" y="-210.3" font-family="Times,serif" font-size="14.00" fill="#000000"> &#160;&#160;&#160;repayExactIn(token: address, inExact: uint, outMin: uint)</text>
<text text-anchor="start" x="304.6795" y="-193.5" font-family="Times,serif" font-size="14.00" fill="#000000"> &#160;&#160;&#160;depositAll(token: address)</text>
<text text-anchor="start" x="304.6795" y="-176.7" font-family="Times,serif" font-size="14.00" fill="#000000"> &#160;&#160;&#160;withdrawAll(token: address)</text>
<text text-anchor="start" x="304.6795" y="-159.9" font-family="Times,serif" font-size="14.00" fill="#000000"> &#160;&#160;&#160;withdraw(token: address, amount: uint)</text>
<text text-anchor="start" x="304.6795" y="-143.1" font-family="Times,serif" font-size="14.00" fill="#000000"> &#160;&#160;&#160;getMarkets(owner: address): address[]</text>
<text text-anchor="start" x="304.6795" y="-126.3" font-family="Times,serif" font-size="14.00" fill="#000000">Public:</text>
<text text-anchor="start" x="304.6795" y="-109.5" font-family="Times,serif" font-size="14.00" fill="#000000"> &#160;&#160;&#160;&lt;&lt;event&gt;&gt; Borrow(borrower: address, borrowed: address, creditIn: uint, amountOut: uint)</text>
<text text-anchor="start" x="304.6795" y="-92.7" font-family="Times,serif" font-size="14.00" fill="#000000"> &#160;&#160;&#160;&lt;&lt;event&gt;&gt; Repay(borrower: address, repaid: address, creditOut: uint, amountIn: uint)</text>
<text text-anchor="start" x="304.6795" y="-75.9" font-family="Times,serif" font-size="14.00" fill="#000000"> &#160;&#160;&#160;&lt;&lt;event&gt;&gt; Deposit(creditor: address, collateral: address, creditOut: uint, amountIn: uint, creditMinted: uint)</text>
<text text-anchor="start" x="304.6795" y="-59.1" font-family="Times,serif" font-size="14.00" fill="#000000"> &#160;&#160;&#160;&lt;&lt;event&gt;&gt; Withdraw(creditor: address, collateral: address, creditIn: uint, creditOut: uint, amountOut: uint)</text>
<text text-anchor="start" x="304.6795" y="-42.3" font-family="Times,serif" font-size="14.00" fill="#000000"> &#160;&#160;&#160;constructor()</text>
<text text-anchor="start" x="304.6795" y="-25.5" font-family="Times,serif" font-size="14.00" fill="#000000"> &#160;&#160;&#160;deposit(token: address, amount: uint)</text>
<text text-anchor="start" x="304.6795" y="-8.7" font-family="Times,serif" font-size="14.00" fill="#000000"> &#160;&#160;&#160;utilization(token: address): uint</text>
</g>
<!-- 11&#45;&gt;6 -->
<g id="edge10" class="edge">
<title>11&#45;&gt;6</title>
<path fill="none" stroke="#000000" stroke-dasharray="5,2" d="M864.5688,-528.7791C902.7364,-569.223 939.8575,-608.5581 971.3747,-641.955"/>
<polygon fill="#000000" stroke="#000000" points="969.0185,-644.5579 978.4275,-649.4284 974.1095,-639.7534 969.0185,-644.5579"/>
</g>
<!-- 11&#45;&gt;0 -->
<g id="edge15" class="edge">
<title>11&#45;&gt;0</title>
<path fill="none" stroke="#000000" stroke-dasharray="5,2" d="M414.8698,-528.7554C409.1052,-540.7493 403.828,-552.854 399.1645,-565 343.9982,-708.6806 405.8713,-761.929 361.1645,-909.2 358.4369,-918.1853 355.1991,-927.2626 351.611,-936.2832"/>
<polygon fill="#000000" stroke="#000000" points="348.3225,-935.0773 347.7517,-945.6568 354.7953,-937.7424 348.3225,-935.0773"/>
</g>
<!-- 11&#45;&gt;2 -->
<g id="edge8" class="edge">
<title>11&#45;&gt;2</title>
<path fill="none" stroke="#000000" d="M615.1645,-528.7791C615.1645,-530.9024 615.1645,-533.0227 615.1645,-535.1392"/>
<polygon fill="none" stroke="#000000" points="604.6646,-535.3928 615.1645,-565.3928 625.6646,-535.3929 604.6646,-535.3928"/>
</g>
<!-- 11&#45;&gt;3 -->
<g id="edge9" class="edge">
<title>11&#45;&gt;3</title>
<path fill="none" stroke="#000000" d="M369.6746,-528.7791C340.4879,-560.1997 311.9229,-590.951 286.083,-618.7686"/>
<polygon fill="none" stroke="#000000" points="278.2508,-611.7722 265.5264,-640.8985 293.637,-626.0645 278.2508,-611.7722"/>
</g>
<!-- 11&#45;&gt;4 -->
<g id="edge12" class="edge">
<title>11&#45;&gt;4</title>
<path fill="none" stroke="#000000" stroke-dasharray="5,2" d="M933.877,-325.6966C1067.9798,-368.8912 1211.2102,-441.9602 1291.1645,-565 1332.8421,-629.1368 1331.0068,-843.9072 1291.1645,-909.2 1272.9415,-939.0634 1250.756,-926.5387 1221.1645,-945.2 1211.3628,-951.3812 1201.4122,-958.0063 1191.5161,-964.8561"/>
<polygon fill="#000000" stroke="#000000" points="1189.4094,-962.0584 1183.2207,-970.6579 1193.4213,-967.7947 1189.4094,-962.0584"/>
</g>
<!-- 11&#45;&gt;5 -->
<g id="edge11" class="edge">
<title>11&#45;&gt;5</title>
<path fill="none" stroke="#000000" stroke-dasharray="5,2" d="M933.7913,-320.5445C1076.1176,-362.8609 1231.4564,-436.6745 1320.1645,-565 1367.93,-634.0978 1355.7009,-883.3966 1346.7208,-1002.575"/>
<polygon fill="#000000" stroke="#000000" points="1343.2226,-1002.4173 1345.9454,-1012.6563 1350.202,-1002.9542 1343.2226,-1002.4173"/>
</g>
<!-- 11&#45;&gt;7 -->
<g id="edge17" class="edge">
<title>11&#45;&gt;7</title>
<path fill="none" stroke="#000000" stroke-dasharray="5,2" d="M933.7252,-348.8216C1074.6474,-396.6634 1236.522,-466.975 1362.1645,-565 1399.7412,-594.3169 1431.2002,-637.8158 1453.1592,-673.7456"/>
<polygon fill="#000000" stroke="#000000" points="1450.3885,-675.9305 1458.5353,-682.704 1456.3906,-672.3284 1450.3885,-675.9305"/>
</g>
<!-- 11&#45;&gt;8 -->
<g id="edge13" class="edge">
<title>11&#45;&gt;8</title>
<path fill="none" stroke="#000000" d="M933.779,-307.8256C1140.4817,-348.1006 1407.4919,-424.0745 1607.1645,-565 1646.9066,-593.0493 1679.2305,-637.4564 1701.3217,-674.1357"/>
<polygon fill="#000000" stroke="#000000" points="1698.3373,-675.9651 1706.4361,-682.7959 1704.3647,-672.4055 1698.3373,-675.9651"/>
</g>
<!-- 11&#45;&gt;9 -->
<g id="edge14" class="edge">
<title>11&#45;&gt;9</title>
<path fill="none" stroke="#000000" d="M933.7064,-332.1126C1186.8482,-388.0508 1548.9987,-473.0096 1861.1645,-565 1934.1635,-586.5117 2012.2972,-612.4628 2084.3138,-637.6149"/>
<polygon fill="#000000" stroke="#000000" points="2083.3812,-640.9966 2093.976,-640.9974 2085.6941,-634.3897 2083.3812,-640.9966"/>
</g>
<!-- 11&#45;&gt;10 -->
<g id="edge16" class="edge">
<title>11&#45;&gt;10</title>
<path fill="none" stroke="#000000" stroke-dasharray="5,2" d="M933.6565,-284.6908C1466.0083,-322.1922 2511.1281,-412.9127 2845.1645,-565 2897.1315,-588.6607 2945.4568,-630.7661 2981.1203,-667.4059"/>
<polygon fill="#000000" stroke="#000000" points="2978.6302,-669.8659 2988.0814,-674.6539 2983.6788,-665.0171 2978.6302,-669.8659"/>
</g>
</g>
</svg>
