<?xml version="1.0" encoding="UTF-8" standalone="no"?>
<!DOCTYPE svg PUBLIC "-//W3C//DTD SVG 1.1//EN"
 "http://www.w3.org/Graphics/SVG/1.1/DTD/svg11.dtd">
<!-- Generated by graphviz version 2.40.1 (20161225.0304)
 -->
<!-- Title: UmlClassDiagram Pages: 1 -->
<svg width="1943pt" height="1146pt"
 viewBox="0.00 0.00 1943.29 1146.20" xmlns="http://www.w3.org/2000/svg" xmlns:xlink="http://www.w3.org/1999/xlink">
<g id="graph0" class="graph" transform="scale(1 1) rotate(0) translate(4 1142.2)">
<title>UmlClassDiagram</title>
<polygon fill="#ffffff" stroke="transparent" points="-4,4 -4,-1142.2 1939.2915,-1142.2 1939.2915,4 -4,4"/>
<!-- 0 -->
<g id="node1" class="node">
<title>0</title>
<polygon fill="#f2f2f2" stroke="#000000" points="59.2475,-895.3 59.2475,-1137.7 497.8473,-1137.7 497.8473,-895.3 59.2475,-895.3"/>
<text text-anchor="middle" x="278.5474" y="-1121.1" font-family="Times,serif" font-size="14.00" fill="#000000">&lt;&lt;Interface&gt;&gt;</text>
<text text-anchor="middle" x="278.5474" y="-1104.3" font-family="Times,serif" font-size="14.00" fill="#000000">IERC20</text>
<polyline fill="none" stroke="#000000" points="59.2475,-1096.1 497.8473,-1096.1 "/>
<text text-anchor="middle" x="278.5474" y="-1079.5" font-family="Times,serif" font-size="14.00" fill="#000000"> </text>
<polyline fill="none" stroke="#000000" points="59.2475,-1071.3 497.8473,-1071.3 "/>
<text text-anchor="start" x="67.2475" y="-1054.7" font-family="Times,serif" font-size="14.00" fill="#000000">External:</text>
<text text-anchor="start" x="67.2475" y="-1037.9" font-family="Times,serif" font-size="14.00" fill="#000000"> &#160;&#160;&#160;&#160;totalSupply(): uint256</text>
<text text-anchor="start" x="67.2475" y="-1021.1" font-family="Times,serif" font-size="14.00" fill="#000000"> &#160;&#160;&#160;&#160;balanceOf(account: address): uint256</text>
<text text-anchor="start" x="67.2475" y="-1004.3" font-family="Times,serif" font-size="14.00" fill="#000000"> &#160;&#160;&#160;&#160;transfer(recipient: address, amount: uint256): bool</text>
<text text-anchor="start" x="67.2475" y="-987.5" font-family="Times,serif" font-size="14.00" fill="#000000"> &#160;&#160;&#160;&#160;allowance(owner: address, spender: address): uint256</text>
<text text-anchor="start" x="67.2475" y="-970.7" font-family="Times,serif" font-size="14.00" fill="#000000"> &#160;&#160;&#160;&#160;approve(spender: address, amount: uint256): bool</text>
<text text-anchor="start" x="67.2475" y="-953.9" font-family="Times,serif" font-size="14.00" fill="#000000"> &#160;&#160;&#160;&#160;transferFrom(sender: address, recipient: address, amount: uint256): bool</text>
<text text-anchor="start" x="67.2475" y="-937.1" font-family="Times,serif" font-size="14.00" fill="#000000">Public:</text>
<text text-anchor="start" x="67.2475" y="-920.3" font-family="Times,serif" font-size="14.00" fill="#000000"> &#160;&#160;&#160;&lt;&lt;event&gt;&gt; Transfer(from: address, to: address, value: uint256)</text>
<text text-anchor="start" x="67.2475" y="-903.5" font-family="Times,serif" font-size="14.00" fill="#000000"> &#160;&#160;&#160;&lt;&lt;event&gt;&gt; Approval(owner: address, spender: address, value: uint256)</text>
</g>
<!-- 1 -->
<g id="node2" class="node">
<title>1</title>
<polygon fill="#f2f2f2" stroke="#000000" points="548.4751,-945.7 548.4751,-1087.3 766.6197,-1087.3 766.6197,-945.7 548.4751,-945.7"/>
<text text-anchor="middle" x="657.5474" y="-1070.7" font-family="Times,serif" font-size="14.00" fill="#000000">Context</text>
<polyline fill="none" stroke="#000000" points="548.4751,-1062.5 766.6197,-1062.5 "/>
<text text-anchor="middle" x="657.5474" y="-1045.9" font-family="Times,serif" font-size="14.00" fill="#000000"> </text>
<polyline fill="none" stroke="#000000" points="548.4751,-1037.7 766.6197,-1037.7 "/>
<text text-anchor="start" x="556.4751" y="-1021.1" font-family="Times,serif" font-size="14.00" fill="#000000">Internal:</text>
<text text-anchor="start" x="556.4751" y="-1004.3" font-family="Times,serif" font-size="14.00" fill="#000000"> &#160;&#160;&#160;_msgSender(): (payable: address)</text>
<text text-anchor="start" x="556.4751" y="-987.5" font-family="Times,serif" font-size="14.00" fill="#000000"> &#160;&#160;&#160;_msgData(): bytes</text>
<text text-anchor="start" x="556.4751" y="-970.7" font-family="Times,serif" font-size="14.00" fill="#000000">Public:</text>
<text text-anchor="start" x="556.4751" y="-953.9" font-family="Times,serif" font-size="14.00" fill="#000000"> &#160;&#160;&#160;constructor()</text>
</g>
<!-- 2 -->
<g id="node3" class="node">
<title>2</title>
<polygon fill="#f2f2f2" stroke="#000000" points="439.9975,-498.3 439.9975,-858.3 875.0973,-858.3 875.0973,-498.3 439.9975,-498.3"/>
<text text-anchor="middle" x="657.5474" y="-841.7" font-family="Times,serif" font-size="14.00" fill="#000000">ERC20</text>
<polyline fill="none" stroke="#000000" points="439.9975,-833.5 875.0973,-833.5 "/>
<text text-anchor="start" x="447.9975" y="-816.9" font-family="Times,serif" font-size="14.00" fill="#000000">Private:</text>
<text text-anchor="start" x="447.9975" y="-800.1" font-family="Times,serif" font-size="14.00" fill="#000000"> &#160;&#160;_balances: mapping(address=&gt;uint256)</text>
<text text-anchor="start" x="447.9975" y="-783.3" font-family="Times,serif" font-size="14.00" fill="#000000"> &#160;&#160;_allowances: mapping(address=&gt;mapping(address=&gt;uint256))</text>
<text text-anchor="start" x="447.9975" y="-766.5" font-family="Times,serif" font-size="14.00" fill="#000000"> &#160;&#160;_totalSupply: uint256</text>
<polyline fill="none" stroke="#000000" points="439.9975,-758.3 875.0973,-758.3 "/>
<text text-anchor="start" x="447.9975" y="-741.7" font-family="Times,serif" font-size="14.00" fill="#000000">Internal:</text>
<text text-anchor="start" x="447.9975" y="-724.9" font-family="Times,serif" font-size="14.00" fill="#000000"> &#160;&#160;&#160;_transfer(sender: address, recipient: address, amount: uint256)</text>
<text text-anchor="start" x="447.9975" y="-708.1" font-family="Times,serif" font-size="14.00" fill="#000000"> &#160;&#160;&#160;_mint(account: address, amount: uint256)</text>
<text text-anchor="start" x="447.9975" y="-691.3" font-family="Times,serif" font-size="14.00" fill="#000000"> &#160;&#160;&#160;_burn(account: address, amount: uint256)</text>
<text text-anchor="start" x="447.9975" y="-674.5" font-family="Times,serif" font-size="14.00" fill="#000000"> &#160;&#160;&#160;_approve(owner: address, spender: address, amount: uint256)</text>
<text text-anchor="start" x="447.9975" y="-657.7" font-family="Times,serif" font-size="14.00" fill="#000000"> &#160;&#160;&#160;_burnFrom(account: address, amount: uint256)</text>
<text text-anchor="start" x="447.9975" y="-640.9" font-family="Times,serif" font-size="14.00" fill="#000000">Public:</text>
<text text-anchor="start" x="447.9975" y="-624.1" font-family="Times,serif" font-size="14.00" fill="#000000"> &#160;&#160;&#160;totalSupply(): uint256</text>
<text text-anchor="start" x="447.9975" y="-607.3" font-family="Times,serif" font-size="14.00" fill="#000000"> &#160;&#160;&#160;balanceOf(account: address): uint256</text>
<text text-anchor="start" x="447.9975" y="-590.5" font-family="Times,serif" font-size="14.00" fill="#000000"> &#160;&#160;&#160;transfer(recipient: address, amount: uint256): bool</text>
<text text-anchor="start" x="447.9975" y="-573.7" font-family="Times,serif" font-size="14.00" fill="#000000"> &#160;&#160;&#160;allowance(owner: address, spender: address): uint256</text>
<text text-anchor="start" x="447.9975" y="-556.9" font-family="Times,serif" font-size="14.00" fill="#000000"> &#160;&#160;&#160;approve(spender: address, amount: uint256): bool</text>
<text text-anchor="start" x="447.9975" y="-540.1" font-family="Times,serif" font-size="14.00" fill="#000000"> &#160;&#160;&#160;transferFrom(sender: address, recipient: address, amount: uint256): bool</text>
<text text-anchor="start" x="447.9975" y="-523.3" font-family="Times,serif" font-size="14.00" fill="#000000"> &#160;&#160;&#160;increaseAllowance(spender: address, addedValue: uint256): bool</text>
<text text-anchor="start" x="447.9975" y="-506.5" font-family="Times,serif" font-size="14.00" fill="#000000"> &#160;&#160;&#160;decreaseAllowance(spender: address, subtractedValue: uint256): bool</text>
</g>
<!-- 2&#45;&gt;0 -->
<g id="edge2" class="edge">
<title>2&#45;&gt;0</title>
<path fill="none" stroke="#000000" stroke-dasharray="5,2" d="M455.564,-858.5396C449.3912,-864.0479 443.236,-869.5404 437.125,-874.9936"/>
<polygon fill="none" stroke="#000000" points="429.9381,-867.3341 414.5452,-895.1426 443.92,-883.0028 429.9381,-867.3341"/>
</g>
<!-- 2&#45;&gt;1 -->
<g id="edge1" class="edge">
<title>2&#45;&gt;1</title>
<path fill="none" stroke="#000000" d="M657.5474,-858.7868C657.5474,-878.1888 657.5474,-897.39 657.5474,-915.3625"/>
<polygon fill="none" stroke="#000000" points="647.0475,-915.6826 657.5474,-945.6827 668.0475,-915.6827 647.0475,-915.6826"/>
</g>
<!-- 4 -->
<g id="node5" class="node">
<title>4</title>
<polygon fill="#f2f2f2" stroke="#000000" points="897.851,-903.7 897.851,-1129.3 1255.2438,-1129.3 1255.2438,-903.7 897.851,-903.7"/>
<text text-anchor="middle" x="1076.5474" y="-1112.7" font-family="Times,serif" font-size="14.00" fill="#000000">&lt;&lt;Library&gt;&gt;</text>
<text text-anchor="middle" x="1076.5474" y="-1095.9" font-family="Times,serif" font-size="14.00" fill="#000000">SafeMath</text>
<polyline fill="none" stroke="#000000" points="897.851,-1087.7 1255.2438,-1087.7 "/>
<text text-anchor="middle" x="1076.5474" y="-1071.1" font-family="Times,serif" font-size="14.00" fill="#000000"> </text>
<polyline fill="none" stroke="#000000" points="897.851,-1062.9 1255.2438,-1062.9 "/>
<text text-anchor="start" x="905.851" y="-1046.3" font-family="Times,serif" font-size="14.00" fill="#000000">Internal:</text>
<text text-anchor="start" x="905.851" y="-1029.5" font-family="Times,serif" font-size="14.00" fill="#000000"> &#160;&#160;&#160;add(a: uint256, b: uint256): uint256</text>
<text text-anchor="start" x="905.851" y="-1012.7" font-family="Times,serif" font-size="14.00" fill="#000000"> &#160;&#160;&#160;sub(a: uint256, b: uint256): uint256</text>
<text text-anchor="start" x="905.851" y="-995.9" font-family="Times,serif" font-size="14.00" fill="#000000"> &#160;&#160;&#160;sub(a: uint256, b: uint256, errorMessage: string): uint256</text>
<text text-anchor="start" x="905.851" y="-979.1" font-family="Times,serif" font-size="14.00" fill="#000000"> &#160;&#160;&#160;mul(a: uint256, b: uint256): uint256</text>
<text text-anchor="start" x="905.851" y="-962.3" font-family="Times,serif" font-size="14.00" fill="#000000"> &#160;&#160;&#160;div(a: uint256, b: uint256): uint256</text>
<text text-anchor="start" x="905.851" y="-945.5" font-family="Times,serif" font-size="14.00" fill="#000000"> &#160;&#160;&#160;div(a: uint256, b: uint256, errorMessage: string): uint256</text>
<text text-anchor="start" x="905.851" y="-928.7" font-family="Times,serif" font-size="14.00" fill="#000000"> &#160;&#160;&#160;mod(a: uint256, b: uint256): uint256</text>
<text text-anchor="start" x="905.851" y="-911.9" font-family="Times,serif" font-size="14.00" fill="#000000"> &#160;&#160;&#160;mod(a: uint256, b: uint256, errorMessage: string): uint256</text>
</g>
<!-- 2&#45;&gt;4 -->
<g id="edge3" class="edge">
<title>2&#45;&gt;4</title>
<path fill="none" stroke="#000000" stroke-dasharray="5,2" d="M875.3314,-854.0865C893.3702,-868.6466 911.3269,-883.1406 928.6655,-897.1357"/>
<polygon fill="#000000" stroke="#000000" points="926.6068,-899.9718 936.5865,-903.5292 931.0034,-894.5248 926.6068,-899.9718"/>
</g>
<!-- 3 -->
<g id="node4" class="node">
<title>3</title>
<polygon fill="#f2f2f2" stroke="#000000" points="69.3829,-582.3 69.3829,-774.3 421.7119,-774.3 421.7119,-582.3 69.3829,-582.3"/>
<text text-anchor="middle" x="245.5474" y="-757.7" font-family="Times,serif" font-size="14.00" fill="#000000">ERC20Detailed</text>
<polyline fill="none" stroke="#000000" points="69.3829,-749.5 421.7119,-749.5 "/>
<text text-anchor="start" x="77.3829" y="-732.9" font-family="Times,serif" font-size="14.00" fill="#000000">Private:</text>
<text text-anchor="start" x="77.3829" y="-716.1" font-family="Times,serif" font-size="14.00" fill="#000000"> &#160;&#160;_name: string</text>
<text text-anchor="start" x="77.3829" y="-699.3" font-family="Times,serif" font-size="14.00" fill="#000000"> &#160;&#160;_symbol: string</text>
<text text-anchor="start" x="77.3829" y="-682.5" font-family="Times,serif" font-size="14.00" fill="#000000"> &#160;&#160;_decimals: uint8</text>
<polyline fill="none" stroke="#000000" points="69.3829,-674.3 421.7119,-674.3 "/>
<text text-anchor="start" x="77.3829" y="-657.7" font-family="Times,serif" font-size="14.00" fill="#000000">Public:</text>
<text text-anchor="start" x="77.3829" y="-640.9" font-family="Times,serif" font-size="14.00" fill="#000000"> &#160;&#160;&#160;constructor(name: string, symbol: string, decimals: uint8)</text>
<text text-anchor="start" x="77.3829" y="-624.1" font-family="Times,serif" font-size="14.00" fill="#000000"> &#160;&#160;&#160;name(): string</text>
<text text-anchor="start" x="77.3829" y="-607.3" font-family="Times,serif" font-size="14.00" fill="#000000"> &#160;&#160;&#160;symbol(): string</text>
<text text-anchor="start" x="77.3829" y="-590.5" font-family="Times,serif" font-size="14.00" fill="#000000"> &#160;&#160;&#160;decimals(): uint8</text>
</g>
<!-- 3&#45;&gt;0 -->
<g id="edge4" class="edge">
<title>3&#45;&gt;0</title>
<path fill="none" stroke="#000000" stroke-dasharray="5,2" d="M254.9157,-774.3099C257.6811,-802.6513 260.7775,-834.3845 263.795,-865.3096"/>
<polygon fill="none" stroke="#000000" points="253.3466,-866.351 266.7105,-895.1895 274.2474,-864.3116 253.3466,-866.351"/>
</g>
<!-- 5 -->
<g id="node6" class="node">
<title>5</title>
<polygon fill="#f2f2f2" stroke="#000000" points="1273.0231,-945.7 1273.0231,-1087.3 1570.0717,-1087.3 1570.0717,-945.7 1273.0231,-945.7"/>
<text text-anchor="middle" x="1421.5474" y="-1070.7" font-family="Times,serif" font-size="14.00" fill="#000000">&lt;&lt;Library&gt;&gt;</text>
<text text-anchor="middle" x="1421.5474" y="-1053.9" font-family="Times,serif" font-size="14.00" fill="#000000">Address</text>
<polyline fill="none" stroke="#000000" points="1273.0231,-1045.7 1570.0717,-1045.7 "/>
<text text-anchor="middle" x="1421.5474" y="-1029.1" font-family="Times,serif" font-size="14.00" fill="#000000"> </text>
<polyline fill="none" stroke="#000000" points="1273.0231,-1020.9 1570.0717,-1020.9 "/>
<text text-anchor="start" x="1281.0231" y="-1004.3" font-family="Times,serif" font-size="14.00" fill="#000000">Internal:</text>
<text text-anchor="start" x="1281.0231" y="-987.5" font-family="Times,serif" font-size="14.00" fill="#000000"> &#160;&#160;&#160;isContract(account: address): bool</text>
<text text-anchor="start" x="1281.0231" y="-970.7" font-family="Times,serif" font-size="14.00" fill="#000000"> &#160;&#160;&#160;toPayable(account: address): (payable: address)</text>
<text text-anchor="start" x="1281.0231" y="-953.9" font-family="Times,serif" font-size="14.00" fill="#000000"> &#160;&#160;&#160;sendValue(recipient: address, amount: uint256)</text>
</g>
<!-- 6 -->
<g id="node7" class="node">
<title>6</title>
<polygon fill="#f2f2f2" stroke="#000000" points="893.3909,-573.9 893.3909,-782.7 1355.7039,-782.7 1355.7039,-573.9 893.3909,-573.9"/>
<text text-anchor="middle" x="1124.5474" y="-766.1" font-family="Times,serif" font-size="14.00" fill="#000000">&lt;&lt;Library&gt;&gt;</text>
<text text-anchor="middle" x="1124.5474" y="-749.3" font-family="Times,serif" font-size="14.00" fill="#000000">SafeERC20</text>
<polyline fill="none" stroke="#000000" points="893.3909,-741.1 1355.7039,-741.1 "/>
<text text-anchor="middle" x="1124.5474" y="-724.5" font-family="Times,serif" font-size="14.00" fill="#000000"> </text>
<polyline fill="none" stroke="#000000" points="893.3909,-716.3 1355.7039,-716.3 "/>
<text text-anchor="start" x="901.3909" y="-699.7" font-family="Times,serif" font-size="14.00" fill="#000000">Private:</text>
<text text-anchor="start" x="901.3909" y="-682.9" font-family="Times,serif" font-size="14.00" fill="#000000"> &#160;&#160;&#160;callOptionalReturn(token: IERC20, data: bytes)</text>
<text text-anchor="start" x="901.3909" y="-666.1" font-family="Times,serif" font-size="14.00" fill="#000000">Internal:</text>
<text text-anchor="start" x="901.3909" y="-649.3" font-family="Times,serif" font-size="14.00" fill="#000000"> &#160;&#160;&#160;safeTransfer(token: IERC20, to: address, value: uint256)</text>
<text text-anchor="start" x="901.3909" y="-632.5" font-family="Times,serif" font-size="14.00" fill="#000000"> &#160;&#160;&#160;safeTransferFrom(token: IERC20, from: address, to: address, value: uint256)</text>
<text text-anchor="start" x="901.3909" y="-615.7" font-family="Times,serif" font-size="14.00" fill="#000000"> &#160;&#160;&#160;safeApprove(token: IERC20, spender: address, value: uint256)</text>
<text text-anchor="start" x="901.3909" y="-598.9" font-family="Times,serif" font-size="14.00" fill="#000000"> &#160;&#160;&#160;safeIncreaseAllowance(token: IERC20, spender: address, value: uint256)</text>
<text text-anchor="start" x="901.3909" y="-582.1" font-family="Times,serif" font-size="14.00" fill="#000000"> &#160;&#160;&#160;safeDecreaseAllowance(token: IERC20, spender: address, value: uint256)</text>
</g>
<!-- 6&#45;&gt;0 -->
<g id="edge7" class="edge">
<title>6&#45;&gt;0</title>
<path fill="none" stroke="#000000" stroke-dasharray="5,2" d="M1011.7448,-782.8412C973.9243,-812.2439 929.7959,-841.0202 884.5474,-858.8 741.0612,-915.181 688.1222,-853.658 539.5474,-894.8 529.0337,-897.7114 518.4161,-901.0106 507.7887,-904.6104"/>
<polygon fill="#000000" stroke="#000000" points="506.328,-901.4125 498.0287,-907.9983 508.6235,-908.0254 506.328,-901.4125"/>
</g>
<!-- 6&#45;&gt;4 -->
<g id="edge5" class="edge">
<title>6&#45;&gt;4</title>
<path fill="none" stroke="#000000" stroke-dasharray="5,2" d="M1109.6887,-782.9925C1104.7307,-817.9254 1099.1609,-857.1697 1094.0228,-893.3718"/>
<polygon fill="#000000" stroke="#000000" points="1090.5259,-893.1032 1092.5859,-903.4959 1097.4564,-894.0869 1090.5259,-893.1032"/>
</g>
<!-- 6&#45;&gt;5 -->
<g id="edge6" class="edge">
<title>6&#45;&gt;5</title>
<path fill="none" stroke="#000000" stroke-dasharray="5,2" d="M1216.4861,-782.9925C1260.3812,-832.9767 1312.0281,-891.788 1352.5085,-937.8839"/>
<polygon fill="#000000" stroke="#000000" points="1349.9336,-940.2561 1359.1621,-945.4605 1355.1934,-935.6371 1349.9336,-940.2561"/>
</g>
<!-- 7 -->
<g id="node8" class="node">
<title>7</title>
<polygon fill="#f2f2f2" stroke="#000000" points="1449.5551,-590.7 1449.5551,-765.9 1745.5397,-765.9 1745.5397,-590.7 1449.5551,-590.7"/>
<text text-anchor="middle" x="1597.5474" y="-749.3" font-family="Times,serif" font-size="14.00" fill="#000000">&lt;&lt;Interface&gt;&gt;</text>
<text text-anchor="middle" x="1597.5474" y="-732.5" font-family="Times,serif" font-size="14.00" fill="#000000">WETH</text>
<polyline fill="none" stroke="#000000" points="1449.5551,-724.3 1745.5397,-724.3 "/>
<text text-anchor="middle" x="1597.5474" y="-707.7" font-family="Times,serif" font-size="14.00" fill="#000000"> </text>
<polyline fill="none" stroke="#000000" points="1449.5551,-699.5 1745.5397,-699.5 "/>
<text text-anchor="start" x="1457.5551" y="-682.9" font-family="Times,serif" font-size="14.00" fill="#000000">External:</text>
<text text-anchor="start" x="1457.5551" y="-666.1" font-family="Times,serif" font-size="14.00" fill="#000000"> &#160;&#160;&#160;&#160;deposit()</text>
<text text-anchor="start" x="1457.5551" y="-649.3" font-family="Times,serif" font-size="14.00" fill="#000000"> &#160;&#160;&#160;&#160;withdraw(wad: uint)</text>
<text text-anchor="start" x="1457.5551" y="-632.5" font-family="Times,serif" font-size="14.00" fill="#000000">Public:</text>
<text text-anchor="start" x="1457.5551" y="-615.7" font-family="Times,serif" font-size="14.00" fill="#000000"> &#160;&#160;&#160;&lt;&lt;event&gt;&gt; Deposit(dst: address, wad: uint)</text>
<text text-anchor="start" x="1457.5551" y="-598.9" font-family="Times,serif" font-size="14.00" fill="#000000"> &#160;&#160;&#160;&lt;&lt;event&gt;&gt; Withdrawal(src: address, wad: uint)</text>
</g>
<!-- 8 -->
<g id="node9" class="node">
<title>8</title>
<polygon fill="#f2f2f2" stroke="#000000" points="1763.8033,-607.5 1763.8033,-749.1 1935.2915,-749.1 1935.2915,-607.5 1763.8033,-607.5"/>
<text text-anchor="middle" x="1849.5474" y="-732.5" font-family="Times,serif" font-size="14.00" fill="#000000">&lt;&lt;Interface&gt;&gt;</text>
<text text-anchor="middle" x="1849.5474" y="-715.7" font-family="Times,serif" font-size="14.00" fill="#000000">Controller</text>
<polyline fill="none" stroke="#000000" points="1763.8033,-707.5 1935.2915,-707.5 "/>
<text text-anchor="middle" x="1849.5474" y="-690.9" font-family="Times,serif" font-size="14.00" fill="#000000"> </text>
<polyline fill="none" stroke="#000000" points="1763.8033,-682.7 1935.2915,-682.7 "/>
<text text-anchor="start" x="1771.8033" y="-666.1" font-family="Times,serif" font-size="14.00" fill="#000000">External:</text>
<text text-anchor="start" x="1771.8033" y="-649.3" font-family="Times,serif" font-size="14.00" fill="#000000"> &#160;&#160;&#160;&#160;withdraw(address, uint)</text>
<text text-anchor="start" x="1771.8033" y="-632.5" font-family="Times,serif" font-size="14.00" fill="#000000"> &#160;&#160;&#160;&#160;balanceOf(address): uint</text>
<text text-anchor="start" x="1771.8033" y="-615.7" font-family="Times,serif" font-size="14.00" fill="#000000"> &#160;&#160;&#160;&#160;earn(address, uint)</text>
</g>
<!-- 9 -->
<g id="node10" class="node">
<title>9</title>
<polygon fill="#f2f2f2" stroke="#000000" points="503.7654,-.5 503.7654,-461.3 811.3294,-461.3 811.3294,-.5 503.7654,-.5"/>
<text text-anchor="middle" x="657.5474" y="-444.7" font-family="Times,serif" font-size="14.00" fill="#000000">yVault</text>
<polyline fill="none" stroke="#000000" points="503.7654,-436.5 811.3294,-436.5 "/>
<text text-anchor="start" x="511.7654" y="-419.9" font-family="Times,serif" font-size="14.00" fill="#000000">Public:</text>
<text text-anchor="start" x="511.7654" y="-403.1" font-family="Times,serif" font-size="14.00" fill="#000000"> &#160;&#160;token: IERC20</text>
<text text-anchor="start" x="511.7654" y="-386.3" font-family="Times,serif" font-size="14.00" fill="#000000"> &#160;&#160;min: uint</text>
<text text-anchor="start" x="511.7654" y="-369.5" font-family="Times,serif" font-size="14.00" fill="#000000"> &#160;&#160;max: uint</text>
<text text-anchor="start" x="511.7654" y="-352.7" font-family="Times,serif" font-size="14.00" fill="#000000"> &#160;&#160;governance: address</text>
<text text-anchor="start" x="511.7654" y="-335.9" font-family="Times,serif" font-size="14.00" fill="#000000"> &#160;&#160;controller: address</text>
<polyline fill="none" stroke="#000000" points="503.7654,-327.7 811.3294,-327.7 "/>
<text text-anchor="start" x="511.7654" y="-311.1" font-family="Times,serif" font-size="14.00" fill="#000000">External:</text>
<text text-anchor="start" x="511.7654" y="-294.3" font-family="Times,serif" font-size="14.00" fill="#000000"> &#160;&#160;&#160;setMin(_min: uint)</text>
<text text-anchor="start" x="511.7654" y="-277.5" font-family="Times,serif" font-size="14.00" fill="#000000"> &#160;&#160;&#160;depositAll()</text>
<text text-anchor="start" x="511.7654" y="-260.7" font-family="Times,serif" font-size="14.00" fill="#000000"> &#160;&#160;&#160;withdrawAll()</text>
<text text-anchor="start" x="511.7654" y="-243.9" font-family="Times,serif" font-size="14.00" fill="#000000"> &#160;&#160;&#160;withdrawAllETH()</text>
<text text-anchor="start" x="511.7654" y="-227.1" font-family="Times,serif" font-size="14.00" fill="#000000"> &#160;&#160;&#160;harvest(reserve: address, amount: uint)</text>
<text text-anchor="start" x="511.7654" y="-210.3" font-family="Times,serif" font-size="14.00" fill="#000000">Public:</text>
<text text-anchor="start" x="511.7654" y="-193.5" font-family="Times,serif" font-size="14.00" fill="#000000"> &#160;&#160;&#160;&lt;&lt;fallback&gt;&gt; ()</text>
<text text-anchor="start" x="511.7654" y="-176.7" font-family="Times,serif" font-size="14.00" fill="#000000"> &#160;&#160;&#160;&lt;&lt;payable&gt;&gt; depositETH()</text>
<text text-anchor="start" x="511.7654" y="-159.9" font-family="Times,serif" font-size="14.00" fill="#000000"> &#160;&#160;&#160;setGovernance(_governance: address)</text>
<text text-anchor="start" x="511.7654" y="-143.1" font-family="Times,serif" font-size="14.00" fill="#000000"> &#160;&#160;&#160;setController(_controller: address)</text>
<text text-anchor="start" x="511.7654" y="-126.3" font-family="Times,serif" font-size="14.00" fill="#000000"> &#160;&#160;&#160;available(): uint</text>
<text text-anchor="start" x="511.7654" y="-109.5" font-family="Times,serif" font-size="14.00" fill="#000000"> &#160;&#160;&#160;earn()</text>
<text text-anchor="start" x="511.7654" y="-92.7" font-family="Times,serif" font-size="14.00" fill="#000000"> &#160;&#160;&#160;balance(): uint</text>
<text text-anchor="start" x="511.7654" y="-75.9" font-family="Times,serif" font-size="14.00" fill="#000000"> &#160;&#160;&#160;constructor(_token: address, _controller: address)</text>
<text text-anchor="start" x="511.7654" y="-59.1" font-family="Times,serif" font-size="14.00" fill="#000000"> &#160;&#160;&#160;withdraw(_shares: uint)</text>
<text text-anchor="start" x="511.7654" y="-42.3" font-family="Times,serif" font-size="14.00" fill="#000000"> &#160;&#160;&#160;withdrawETH(_shares: uint)</text>
<text text-anchor="start" x="511.7654" y="-25.5" font-family="Times,serif" font-size="14.00" fill="#000000"> &#160;&#160;&#160;getPricePerFullShare(): uint</text>
<text text-anchor="start" x="511.7654" y="-8.7" font-family="Times,serif" font-size="14.00" fill="#000000"> &#160;&#160;&#160;deposit(_amount: uint)</text>
</g>
<!-- 9&#45;&gt;0 -->
<g id="edge13" class="edge">
<title>9&#45;&gt;0</title>
<path fill="none" stroke="#000000" d="M503.6152,-252.3949C361.3749,-281.3143 157.821,-347.76 60.5474,-497.8 -26.7336,-632.427 -12.4403,-715.9182 60.5474,-858.8 65.5909,-868.6732 71.573,-878.0711 78.2764,-886.9971"/>
<polygon fill="#000000" stroke="#000000" points="75.6917,-889.3721 84.6291,-895.0619 81.1906,-885.0406 75.6917,-889.3721"/>
</g>
<!-- 9&#45;&gt;2 -->
<g id="edge8" class="edge">
<title>9&#45;&gt;2</title>
<path fill="none" stroke="#000000" d="M657.5474,-461.4804C657.5474,-463.6903 657.5474,-465.8993 657.5474,-468.1065"/>
<polygon fill="none" stroke="#000000" points="647.0475,-468.1438 657.5474,-498.1438 668.0475,-468.1438 647.0475,-468.1438"/>
</g>
<!-- 9&#45;&gt;3 -->
<g id="edge9" class="edge">
<title>9&#45;&gt;3</title>
<path fill="none" stroke="#000000" d="M503.548,-398.1315C453.9969,-451.9401 400.1508,-510.4128 354.5312,-559.9521"/>
<polygon fill="none" stroke="#000000" points="346.793,-552.8549 334.1947,-582.036 362.2408,-567.0804 346.793,-552.8549"/>
</g>
<!-- 9&#45;&gt;4 -->
<g id="edge12" class="edge">
<title>9&#45;&gt;4</title>
<path fill="none" stroke="#000000" stroke-dasharray="5,2" d="M811.552,-267.3337C999.3913,-315.2527 1299.9622,-404.3841 1364.5474,-497.8 1410.1691,-563.7869 1410.7799,-793.2396 1364.5474,-858.8 1337.0836,-897.7454 1306.256,-873.6578 1263.5474,-894.8 1260.773,-896.1734 1257.9895,-897.5797 1255.2003,-899.0155"/>
<polygon fill="#000000" stroke="#000000" points="1253.5065,-895.9517 1246.2772,-903.6968 1256.7585,-902.1504 1253.5065,-895.9517"/>
</g>
<!-- 9&#45;&gt;5 -->
<g id="edge11" class="edge">
<title>9&#45;&gt;5</title>
<path fill="none" stroke="#000000" stroke-dasharray="5,2" d="M811.5661,-265.4679C1006.2679,-312.5564 1324.6968,-402.028 1395.5474,-497.8 1445.2775,-565.0225 1436.5949,-807.1175 1428.0371,-935.4009"/>
<polygon fill="#000000" stroke="#000000" points="1424.5324,-935.3518 1427.3433,-945.5669 1431.5162,-935.8285 1424.5324,-935.3518"/>
</g>
<!-- 9&#45;&gt;6 -->
<g id="edge10" class="edge">
<title>9&#45;&gt;6</title>
<path fill="none" stroke="#000000" stroke-dasharray="5,2" d="M811.4312,-378.3252C875.4013,-439.6105 948.428,-509.5723 1007.8572,-566.5073"/>
<polygon fill="#000000" stroke="#000000" points="1005.7639,-569.3488 1015.4062,-573.7394 1010.6065,-564.2941 1005.7639,-569.3488"/>
</g>
<!-- 9&#45;&gt;7 -->
<g id="edge15" class="edge">
<title>9&#45;&gt;7</title>
<path fill="none" stroke="#000000" stroke-dasharray="5,2" d="M811.4906,-259.5192C976.3198,-295.4401 1240.4418,-368.5968 1435.5474,-497.8 1469.8537,-520.5183 1501.5739,-552.1927 1527.6837,-582.6756"/>
<polygon fill="#000000" stroke="#000000" points="1525.0739,-585.0101 1534.199,-590.3937 1530.4229,-580.4946 1525.0739,-585.0101"/>
</g>
<!-- 9&#45;&gt;8 -->
<g id="edge14" class="edge">
<title>9&#45;&gt;8</title>
<path fill="none" stroke="#000000" stroke-dasharray="5,2" d="M811.5179,-252.4487C1077.3743,-292.2063 1608.1166,-383.5688 1754.5474,-497.8 1786.8421,-522.9932 1809.3473,-562.2675 1824.3166,-597.7561"/>
<polygon fill="#000000" stroke="#000000" points="1821.1362,-599.2263 1828.1507,-607.1666 1827.6188,-596.5851 1821.1362,-599.2263"/>
</g>
</g>
</svg>
